<?xml version="1.0" standalone="no"?><!DOCTYPE svg PUBLIC "-//W3C//DTD SVG 1.1//EN" "http://www.w3.org/Graphics/SVG/1.1/DTD/svg11.dtd"><svg t="1732960464918" class="icon" viewBox="0 0 1024 1024" version="1.1" xmlns="http://www.w3.org/2000/svg" p-id="12645" xmlns:xlink="http://www.w3.org/1999/xlink" width="32" height="32"><path d="M501.248 200.874667h-232.106667c-18.773333 0-34.133333 15.36-34.133333 34.133333v232.106667c0 18.773333 15.36 34.133333 34.133333 34.133333h232.106667c18.773333 0 34.133333-15.36 34.133333-34.133333v-232.106667a34.133333 34.133333 0 0 0-34.133333-34.133333z m-34.133333 232.106666h-163.84v-163.84h163.84v163.84zM303.274667 591.018667h-68.266667v232.106666c0 18.773333 15.36 34.133333 34.133333 34.133334h232.106667v-68.266667h-197.973333v-197.973333zM736.597333 714.752v-123.733333c0-18.773333-15.36-34.133333-34.133333-34.133334h-123.733333v68.266667h89.6v89.6h68.266666zM578.730667 788.992h77.312v68.266667h-77.312zM823.125333 788.992h-89.6v68.266667h123.733334c18.773333 0 34.133333-15.36 34.133333-34.133334v-123.733333h-68.266667v89.6zM857.258667 200.874667h-232.106667v68.266666h197.973333v197.973334h68.266667v-232.106667c0-18.773333-15.36-34.133333-34.133333-34.133333z" p-id="12646"></path></svg>