<svg t="1729504648055" class="icon" viewBox="0 0 1024 1024" version="1.1" xmlns="http://www.w3.org/2000/svg" p-id="11750" width="32" height="32"><path d="M103.355 692.551H428.03c-34.137-24.771-64.03-54.772-88.375-88.972H103.351c-22.82 0-41.317 18.126-41.317 40.631v7.541c0 22.5 18.495 40.801 41.317 40.801m728.151 10.887c-7.753-20.078-30.923-30.345-51.712-22.759l-9.753 3.555c-20.959 7.312-31.542 29.679-23.745 49.568l70.329 181.652c7.821 20.014 30.9 30.212 51.684 22.736l9.813-3.537c20.979-7.312 31.567-29.744 23.745-49.651l-70.377-181.571zM663.154 840.821l-559.798 0.042c-22.82 0-41.317 18.173-41.317 40.65v7.541c0 22.522 18.495 40.845 41.317 40.845h559.798c22.799 0 41.271-18.235 41.271-40.738v-7.63c0.042-22.479-18.451-40.719-41.271-40.719M357.978 431.31c4.994 30.042 14.576 59.939 29.358 88.506 16.135 31.113 37.267 58.141 61.633 80.876 32.937 30.817 71.94 53.828 114.134 67.46 74.426 24.153 158.064 20.078 233.217-17.766 149.426-75.474 208.636-256.275 132.348-403.86C863.504 120.948 721.295 60.221 588.135 91.444c-23.274 5.423-46.245 13.351-68.49 24.561-30.646 15.47-57.238 35.484-79.909 58.611-46.332 47.251-75.411 107.874-83.425 171.948-3.515 27.921-2.98 56.426 1.67 84.753m299.941-275.352c127.227 0 230.322 101.786 230.322 227.366 0 125.536-103.118 227.299-230.322 227.299-127.162 0-230.237-101.746-230.237-227.299 0.022-125.554 103.094-227.366 230.237-227.366M106.335 359.327c-24.475 0-44.271 19.629-44.271 43.695v8.228c0 24.129 19.822 43.629 44.271 43.629h169.699c-4.434-23.207-6.986-47.103-6.986-71.596 0-8.038 0.685-15.964 1.242-23.957H106.337z m-2.98-163.034h215.087c18.707-33.023 42.213-62.961 69.559-89.038H103.359c-22.82 0-41.317 18.126-41.317 40.631v7.587c0 22.522 18.495 40.82 41.317 40.82z" fill="#707070" p-id="11751"></path></svg>