<?xml version="1.0" standalone="no"?><!DOCTYPE svg PUBLIC "-//W3C//DTD SVG 1.1//EN" "http://www.w3.org/Graphics/SVG/1.1/DTD/svg11.dtd"><svg t="1733734060562" class="icon" viewBox="0 0 1024 1024" version="1.1" xmlns="http://www.w3.org/2000/svg" p-id="9303" xmlns:xlink="http://www.w3.org/1999/xlink" width="32" height="32"><path d="M70.5 933.5c-3.3 0-6-2.7-6-6V107.2c0-3.3 2.5-4.9 5.5-3.6l437.5 194.5c3 1.3 8 1.3 11 0L955 104.9c3-1.3 5.5 0.3 5.5 3.6l1 819c0 3.3-2.7 6-6 6h-52.7c-3.3 0-6-2.7-6-6l0.5-716.9c0-3.3-2.4-4.9-5.4-3.5L518.4 381.3c-3 1.4-7.9 1.4-10.9 0L134.4 210.2c-3-1.4-5.4 0.2-5.4 3.5l6.2 713.8c0 3.3-2.6 6-5.9 6H70.5z" fill="#333333" p-id="9304"></path><path d="M225 696.3c178.8 98.2 395.3 98 573.8-0.3-10.3-18.7-20.5-37.3-30.8-56-159.4 87.7-352.7 87.7-512.1 0-10.3 18.7-20.6 37.5-30.9 56.3z" fill="#333333" p-id="9305"></path></svg>