<?xml version="1.0" standalone="no"?><!DOCTYPE svg PUBLIC "-//W3C//DTD SVG 1.1//EN" "http://www.w3.org/Graphics/SVG/1.1/DTD/svg11.dtd"><svg t="1741836894056" class="icon" viewBox="0 0 1024 1024" version="1.1" xmlns="http://www.w3.org/2000/svg" p-id="14385" xmlns:xlink="http://www.w3.org/1999/xlink" width="48" height="48"><path d="M990.849658 206.172091L817.648718 33.022349c-20.683766-20.683766-48.074396-32.100795-77.308135-32.100795H110.765662C49.687116 0.921554 0.025599 50.583071 0.025599 111.661617v801.444728c0 61.078546 49.661517 110.740063 110.740063 110.740063H511.488026c20.222989 0 36.554972-16.331983 36.554972-36.554973s-16.331983-36.503775-36.554972-36.503774H110.765662c-20.786161 0-37.681316-16.895155-37.681316-37.681316V111.661617c0-20.786161 16.895155-37.681316 37.681316-37.681316h629.626118c9.727514 0 18.840658 3.788611 25.701115 10.59787l173.20094 173.20094a36.042998 36.042998 0 0 1 10.59787 25.701115v228.903755a36.503775 36.503775 0 0 0 36.503775 36.554972c20.222989 0 36.554972-16.331983 36.554972-36.554972V283.480226c0-29.233738-11.417029-56.624369-32.100794-77.308135z" p-id="14386"></path><path d="M312.227589 425.39953h-30.872057V368.979951h30.872057v-48.637568c0-32.459177 7.730813-56.521974 23.141243-72.290786 15.461627-15.768812 34.660667-23.60202 57.750712-23.602019h29.028949v67.683015H393.733913c-12.338583 0-18.533473 8.242788-18.533473 24.677167v52.170191h46.948053v56.419579h-46.948053v301.143343h-62.972851V425.39953zM437.558922 224.39838h62.972851v401.285536c0 13.157742 2.047898 22.322084 6.194891 27.493025 4.095795 5.170941 12.338583 8.447578 24.677166 9.881106v67.683016c-32.100795 0-55.754012-6.80926-71.01085-20.427779-15.256837-13.618519-22.834058-40.189991-22.834058-79.714414V224.39838zM666.616269 726.542873h-55.549222l-81.506325-357.511725 66.966252-0.102394 41.674716 227.521423 42.954652-227.521423 66.966252 0.102394-81.506325 357.511725z" p-id="14387"></path><path d="M1013.683716 838.562872c0-0.358382 0-0.563172-0.102395-0.921554 0-0.358382-0.102395-0.665567-0.102395-1.023949 0-0.20479 0-0.460777-0.102395-0.665567a3.9934 3.9934 0 0 0-0.20479-1.126343c0-0.20479-0.102395-0.460777-0.102394-0.563172-0.102395-0.358382-0.102395-0.819159-0.20479-1.126344 0-0.20479-0.102395-0.358382-0.102395-0.563172-0.102395-0.358382-0.20479-0.665567-0.358382-1.126343-0.102395-0.20479-0.102395-0.460777-0.20479-0.665567l-0.358382-1.023949c-0.102395-0.20479-0.102395-0.460777-0.20479-0.665567-0.102395-0.358382-0.20479-0.563172-0.358382-0.921553-0.102395-0.20479-0.20479-0.563172-0.358382-0.81916-0.102395-0.20479-0.20479-0.460777-0.358382-0.819159a2.59571 2.59571 0 0 0-0.460777-0.921553c-0.102395-0.20479-0.20479-0.460777-0.358382-0.563172-0.102395-0.358382-0.358382-0.665567-0.460777-1.023949a1.116104 1.116104 0 0 0-0.358382-0.460777c-0.20479-0.358382-0.358382-0.665567-0.563172-1.023949a0.921554 0.921554 0 0 1-0.20479-0.460777l-0.665566-1.023949c-0.102395-0.102395-0.20479-0.20479-0.358383-0.460777l-0.665566-1.023948c-0.102395-0.102395-0.20479-0.358382-0.358382-0.460777a2.80562 2.80562 0 0 0-0.819159-0.921554c-0.102395-0.20479-0.358382-0.358382-0.460777-0.563172-0.20479-0.20479-0.460777-0.563172-0.665567-0.819159-0.20479-0.20479-0.460777-0.563172-0.819159-0.819159l-0.460777-0.460777-107.770612-108.231389a36.554972 36.554972 0 0 0-51.709414 0 36.554972 36.554972 0 0 0 0 51.709415l45.668117 45.668116h-295.358033c-20.222989 0-36.554972 16.331983-36.554972 36.554973s16.331983 36.503775 36.554972 36.503775h295.358033l-83.81021 83.810209a36.554972 36.554972 0 0 0 0 51.709415 36.544733 36.544733 0 0 0 25.80351 10.751462c9.369132 0 18.738263-3.532623 25.80351-10.751462l146.117494-146.117495 0.460777-0.460777 0.819159-0.819159c0.20479-0.20479 0.460777-0.563172 0.665567-0.819159 0.102395-0.20479 0.358382-0.358382 0.460777-0.563171 0.20479-0.358382 0.460777-0.665567 0.819159-0.921554 0.102395-0.102395 0.20479-0.358382 0.358382-0.460777l0.665566-1.023949c0.102395-0.102395 0.20479-0.20479 0.358382-0.460777l0.665567-1.023949a0.921554 0.921554 0 0 0 0.20479-0.460777c0.20479-0.358382 0.460777-0.665567 0.563172-1.023949 0.102395-0.102395 0.20479-0.358382 0.358382-0.460777 0.20479-0.358382 0.358382-0.665567 0.460777-1.023948 0.102395-0.20479 0.20479-0.460777 0.358382-0.563172 0.102395-0.358382 0.20479-0.563172 0.460777-0.921554 0.102395-0.20479 0.20479-0.460777 0.358382-0.819159 0.102395-0.20479 0.20479-0.563172 0.358382-0.819159 0.102395-0.358382 0.20479-0.563172 0.358382-0.921554 0.102395-0.20479 0.102395-0.460777 0.20479-0.665567l0.358382-1.023949c0.102395-0.20479 0.102395-0.460777 0.20479-0.665566 0.102395-0.358382 0.20479-0.665567 0.358382-1.126344 0-0.20479 0.102395-0.358382 0.102395-0.563172 0.102395-0.358382 0.20479-0.819159 0.204789-1.126344 0-0.20479 0.102395-0.460777 0.102395-0.563171 0.102395-0.358382 0.102395-0.819159 0.20479-1.126344 0-0.20479 0.102395-0.460777 0.102395-0.665567 0-0.358382 0.102395-0.665567 0.102395-1.023949s0-0.563172 0.102395-0.921554c0-0.20479 0-0.563172 0.102395-0.819159 0.102395-1.279936 0.102395-2.40628 0-3.635018-0.20479-0.511974-0.20479-0.870356-0.20479-1.075146z" p-id="14388"></path></svg>