<?xml version="1.0" standalone="no"?><!DOCTYPE svg PUBLIC "-//W3C//DTD SVG 1.1//EN" "http://www.w3.org/Graphics/SVG/1.1/DTD/svg11.dtd"><svg t="1733116322337" class="icon" viewBox="0 0 1024 1024" version="1.1" xmlns="http://www.w3.org/2000/svg" p-id="6200" xmlns:xlink="http://www.w3.org/1999/xlink" width="32" height="32"><path d="M514.56 952.32c-241.737143 0-437.76-196.022857-437.76-437.76S272.822857 76.8 514.56 76.8s437.76 196.022857 437.76 437.76c-0.365714 241.737143-196.022857 437.394286-437.76 437.76z m140.434286-98.742857a366.445714 366.445714 0 0 0 146.505143-110.08L658.285714 600.32 618.569143 640a73.142857 73.142857 0 0 1-103.424 0L402.285714 527.140571 209.92 719.542857A366.701714 366.701714 0 0 0 654.994286 853.577143zM709.997714 548.571429l132.022857 132.022857a366.189714 366.189714 0 0 0 39.716572-166.034286c-0.365714-202.605714-164.571429-366.811429-367.177143-367.177143-148.48 0-282.331429 89.6-339.017143 226.742857a366.445714 366.445714 0 0 0-1.499428 277.833143L350.573714 475.428571a73.142857 73.142857 0 0 1 103.424 0l112.859429 112.859429L606.573714 548.571429a73.142857 73.142857 0 0 1 103.424 0zM621.714286 365.714286a18.285714 18.285714 0 1 1 36.571428 0 18.285714 18.285714 0 0 1-36.571428 0z m18.285714-91.428572a91.428571 91.428571 0 1 0 0 182.857143 91.428571 91.428571 0 0 0 0-182.857143z" p-id="6201" fill="#2c2c2c"></path></svg>