<?xml version="1.0" standalone="no"?><!DOCTYPE svg PUBLIC "-//W3C//DTD SVG 1.1//EN" "http://www.w3.org/Graphics/SVG/1.1/DTD/svg11.dtd"><svg t="1729586718893" class="icon" viewBox="0 0 1024 1024" version="1.1" xmlns="http://www.w3.org/2000/svg" p-id="5922" xmlns:xlink="http://www.w3.org/1999/xlink" width="32" height="32"><path d="M147.2 806.4c-46.933333 0-76.8-12.8-93.866667-40.533333-29.866667-53.333333 14.933333-130.133333 130.133334-232.533334 12.8-12.8 34.133333-10.666667 44.8 2.133334 12.8 12.8 10.666667 34.133333-2.133334 44.8-113.066667 96-121.6 145.066667-117.333333 151.466666s36.266667 19.2 136.533333-8.533333c110.933333-34.133333 215.466667-81.066667 315.733334-138.666667 100.266667-55.466667 194.133333-123.733333 277.333333-202.666666 74.666667-72.533333 76.8-108.8 74.666667-113.066667s-46.933333-23.466667-181.333334 21.333333c-17.066667 6.4-34.133333-2.133333-40.533333-19.2-6.4-17.066667 2.133333-34.133333 19.2-40.533333 140.8-46.933333 226.133333-44.8 256 6.4 25.6 44.8-2.133333 108.8-85.333333 192-87.466667 83.2-185.6 153.6-292.266667 213.333333-102.4 61.866667-213.333333 110.933333-328.533333 147.2-36.266667 10.666667-74.666667 14.933333-113.066667 17.066667z" fill="#fd4406" p-id="5923"></path><path d="M518.4 846.933333c-185.6 0-334.933333-149.333333-334.933333-334.933333s149.333333-334.933333 334.933333-334.933333S853.333333 326.4 853.333333 512s-149.333333 334.933333-334.933333 334.933333z m0-605.866666c-149.333333 0-270.933333 121.6-270.933333 270.933333s121.6 270.933333 270.933333 270.933333C667.733333 782.933333 789.333333 661.333333 789.333333 512c0-149.333333-121.6-270.933333-270.933333-270.933333z" fill="#fd4406" p-id="5924"></path><path d="M386.133333 614.4c-53.333333 0-96-42.666667-96-96s42.666667-96 96-96 96 42.666667 96 96-42.666667 96-96 96z m0-128c-17.066667 0-32 14.933333-32 32s14.933333 32 32 32 32-14.933333 32-32-12.8-32-32-32z" fill="#fd4406" p-id="5925"></path><path d="M518.4 339.2m-64 0a64 64 0 1 0 128 0 64 64 0 1 0-128 0Z" fill="#fd4406" p-id="5926"></path><path d="M646.4 458.666667m-42.666667 0a42.666667 42.666667 0 1 0 85.333334 0 42.666667 42.666667 0 1 0-85.333334 0Z" fill="#fd4406" p-id="5927"></path></svg>