<?xml version="1.0" standalone="no"?><!DOCTYPE svg PUBLIC "-//W3C//DTD SVG 1.1//EN" "http://www.w3.org/Graphics/SVG/1.1/DTD/svg11.dtd"><svg t="1741931320358" class="icon" viewBox="0 0 1024 1024" version="1.1" xmlns="http://www.w3.org/2000/svg" p-id="3607" width="48" height="48" xmlns:xlink="http://www.w3.org/1999/xlink"><path d="M311.993661 40.696586H257.891812l-41.412707 405.747401c-11.197566 114.720973-20.150599 219.787095-27.239164 318.795728h-1.118681c-7.09215-101.422345-15.67229-204.074755-26.120483-317.588871L121.703164 40.684982H67.974209L48.572983 965.717109h40.297613l6.342777-381.598671c2.237362-129.214852 4.478309-275.325693 5.224097-390.046665h1.118681c7.088565 111.088799 17.163864 231.855658 28.730738 352.610912L169.462235 957.245906h32.463261L244.46047 538.211482c11.939768-117.134685 23.133748-235.476227 31.713888-344.151314h1.122266c-0.372894 114.720973 1.864468 257.211244 3.728937 382.805528l6.346363 388.839809h41.785601z m163.427812 432.309844c32.090367-38.64261 49.996433-119.548398 49.996433-212.534353 0-115.927829-25.744004-218.568634-78.354278-218.568635-29.103632 0-56.33921 32.608328-70.519925 66.411909l10.821087 100.227093c10.821087-24.137126 30.225899-54.331741 50.000018-54.331741 29.849419 0 44.030135 56.745454 44.030135 127.996391 0 100.227093-31.717473 147.329301-55.969903 147.329301h-18.286131v100.227093h19.031919c33.205462 0 63.804254 54.343346 63.804254 171.478031 0 80.905788-16.421663 165.443749-56.342796 165.443749-23.133748 0-45.521709-30.194616-55.593423-51.929633l-11.193981 107.479835c13.431342 28.976155 39.54824 56.745454 68.651872 56.745454 63.804254 0 98.87777-124.375823 98.877771-272.91198 0-127.996392-27.239164-211.315892-58.953052-230.648802z m280.211649-172.673283h-43.277176v411.781683c0 100.227093-23.137334 150.94987-42.911454 150.949869-28.357845 0-38.433144-76.078363-38.433144-190.799335V299.114686h-43.280762V695.218842c0 212.534353 30.9681 283.785291 66.41451 283.785291 33.209048 0 53.356061-64.0098 61.939786-109.893548h1.118681l2.237362 96.606524h38.060251c-0.745787-53.136489-1.864468-115.927829-1.864469-190.799336z m94.026567 189.580875c-30.222313 45.883747-51.488007 129.214852-51.488007 245.142681 0 127.996392 31.713888 243.924221 89.171779 243.924221 52.986753 0 91.789206-106.261374 91.789205-264.463986 0-111.088799-22.015067-190.787731-52.610274-234.257766v-3.632173c30.595207-50.711172 43.284347-132.835421 43.284348-210.120641 0-109.893547-25.001802-224.602916-78.730757-224.602916-47.013284 0-83.205481 96.606524-83.205481 241.510508 0 78.492076 13.804236 155.777295 41.789187 202.879503z m38.806038 390.046665c-28.730738 0-46.64039-72.44619-46.64039-161.811576 0-80.905788 14.922917-150.94987 42.165666-181.144485 30.591621 32.608328 51.488007 89.365386 51.488008 190.799335 0 83.319501-17.163864 152.156726-47.013284 152.156726z m1.118681-740.243864c27.984951 0 39.178932 68.825621 39.178932 140.076559 0 72.457794-15.67229 131.628565-35.073516 156.984151-26.493377-28.976155-44.775922-78.492076-44.775922-161.811577 0-68.837225 13.058449-135.249134 40.670506-135.249133z" p-id="3608"></path></svg>