<?xml version="1.0" standalone="no"?><!DOCTYPE svg PUBLIC "-//W3C//DTD SVG 1.1//EN" "http://www.w3.org/Graphics/SVG/1.1/DTD/svg11.dtd"><svg t="1732866689886" class="icon" viewBox="0 0 1024 1024" version="1.1" xmlns="http://www.w3.org/2000/svg" p-id="4305" width="32" height="32" xmlns:xlink="http://www.w3.org/1999/xlink"><path d="M469.333333 874.666667C245.333333 874.666667 64 693.333333 64 469.333333S245.333333 64 469.333333 64s405.333333 181.333333 405.333334 405.333333-181.333333 405.333333-405.333334 405.333334z m0-725.333334C292.266667 149.333333 149.333333 292.266667 149.333333 469.333333s142.933333 320 320 320 320-142.933333 320-320S646.4 149.333333 469.333333 149.333333z" fill="#2c2c2c" p-id="4306"></path><path d="M311.466667 403.2c-8.533333 0-17.066667-2.133333-23.466667-8.533333-19.2-12.8-23.466667-40.533333-10.666667-59.733334 42.666667-61.866667 115.2-100.266667 192-100.266666 57.6 0 115.2 21.333333 157.866667 61.866666 17.066667 14.933333 19.2 42.666667 2.133333 59.733334-14.933333 17.066667-42.666667 19.2-59.733333 2.133333-27.733333-25.6-64-38.4-100.266667-38.4-49.066667 0-93.866667 23.466667-121.6 64-8.533333 12.8-23.466667 19.2-36.266666 19.2z" fill="#2c2c2c" p-id="4307"></path><path d="M902.4 955.733333c-10.666667 0-21.333333-4.266667-29.866667-12.8l-181.333333-181.333333c-17.066667-17.066667-17.066667-42.666667 0-59.733333s42.666667-17.066667 59.733333 0l181.333334 181.333333c17.066667 17.066667 17.066667 42.666667 0 59.733333-8.533333 8.533333-19.2 12.8-29.866667 12.8z" fill="#2c2c2c" p-id="4308"></path></svg>