<?xml version="1.0" standalone="no"?><!DOCTYPE svg PUBLIC "-//W3C//DTD SVG 1.1//EN" "http://www.w3.org/Graphics/SVG/1.1/DTD/svg11.dtd"><svg height="1100" node-id="1" sillyvg="true" template-height="1100" template-width="1100" version="1.1" viewBox="0 0 1100 1100" width="1100" xmlns="http://www.w3.org/2000/svg" xmlns:xlink="http://www.w3.org/1999/xlink"><defs node-id="174"><linearGradient gradientUnits="objectBoundingBox" id="linearGradient-1" node-id="5" spreadMethod="pad" x1="0.5" x2="0.5" y1="0" y2="0.9950284"><stop offset="0" stop-color="#ffdfb2"></stop><stop offset="1" stop-color="#fffae1"></stop></linearGradient><linearGradient gradientUnits="objectBoundingBox" id="linearGradient-3" node-id="15" spreadMethod="pad" x1="0.5" x2="0.5" y1="0.3088303" y2="0.8524729"><stop offset="0" stop-color="#ff9451"></stop><stop offset="1" stop-color="#ff5c24"></stop></linearGradient><linearGradient gradientUnits="objectBoundingBox" id="linearGradient-7" node-id="24" spreadMethod="pad" x1="0.369313" x2="0.5" y1="0.18822756" y2="0.91234434"><stop offset="0" stop-color="#ff602a"></stop><stop offset="1" stop-color="#de2900"></stop></linearGradient><linearGradient gradientUnits="objectBoundingBox" id="linearGradient-9" node-id="29" spreadMethod="pad" x1="-0.24325973" x2="0.36427453" y1="0.56887716" y2="0.78613627"><stop offset="0" stop-color="#ffffff"></stop><stop offset="1" stop-color="#ffffff" stop-opacity="0"></stop></linearGradient><linearGradient gradientUnits="objectBoundingBox" id="linearGradient-11" node-id="34" spreadMethod="pad" x1="0.5" x2="0.5" y1="0.0000000000000021265954" y2="1.4274029"><stop offset="0" stop-color="#ffbd56"></stop><stop offset="1" stop-color="#f65d04"></stop></linearGradient><linearGradient gradientUnits="objectBoundingBox" id="linearGradient1" node-id="206" spreadMethod="pad" x1="0.5" x2="0.5" y1="0.0000000000000021265954" y2="1"><stop offset="0" stop-color="#ffbd56"></stop><stop offset="1" stop-color="#ffb954"></stop></linearGradient><linearGradient gradientUnits="objectBoundingBox" id="linearGradient-15" node-id="42" spreadMethod="pad" x1="0.5" x2="0.5" y1="0.0000000000000021265954" y2="1"><stop offset="0" stop-color="#ffbd56"></stop><stop offset="1" stop-color="#ffb954"></stop></linearGradient><linearGradient gradientUnits="objectBoundingBox" id="linearGradient-20" node-id="56" spreadMethod="pad" x1="0.36124" x2="0.5" y1="-0.000000000000014210855" y2="1.3369293"><stop offset="0" stop-color="#ff773e"></stop><stop offset="1" stop-color="#d02800"></stop></linearGradient><linearGradient gradientUnits="objectBoundingBox" id="linearGradient-21" node-id="59" spreadMethod="pad" x1="0.5" x2="0.5" y1="0.06264556" y2="1"><stop offset="0" stop-color="#ff8629"></stop><stop offset="1" stop-color="#e92a00"></stop></linearGradient><linearGradient gradientUnits="objectBoundingBox" id="linearGradient-23" node-id="64" spreadMethod="pad" x1="0.5" x2="0.5" y1="0" y2="1"><stop offset="0" stop-color="#fe6b31"></stop><stop offset="1" stop-color="#ee2e00"></stop></linearGradient><linearGradient gradientUnits="objectBoundingBox" id="linearGradient-24" node-id="67" spreadMethod="pad" x1="0.86394113" x2="1" y1="0.09564056" y2="0.6691191"><stop offset="0" stop-color="#fe6b31" stop-opacity="0.8004808"></stop><stop offset="1" stop-color="#e32600"></stop></linearGradient><linearGradient gradientUnits="objectBoundingBox" id="linearGradient-25" node-id="70" spreadMethod="pad" x1="0.5" x2="0.5" y1="0.2802903" y2="0"><stop offset="0" stop-color="#ff4d10"></stop><stop offset="0.6989001" stop-color="#ff9651"></stop><stop offset="1" stop-color="#ff9853"></stop></linearGradient><linearGradient gradientUnits="objectBoundingBox" id="linearGradient-29" node-id="80" spreadMethod="pad" x1="0.13339405" x2="0.25506985" y1="0.3942364" y2="0.5321906"><stop offset="0" stop-color="#ffffff"></stop><stop offset="1" stop-color="#ffffff" stop-opacity="0"></stop></linearGradient><linearGradient gradientUnits="objectBoundingBox" id="linearGradient-31" node-id="85" spreadMethod="pad" x1="0.5" x2="0.5" y1="0.031071529" y2="1.4431031"><stop offset="0" stop-color="#ffe185"></stop><stop offset="0.12314467" stop-color="#ffd060"></stop><stop offset="1" stop-color="#ff9e3f"></stop></linearGradient><linearGradient gradientUnits="objectBoundingBox" id="linearGradient-35" node-id="95" spreadMethod="pad" x1="0.14240597" x2="0.24201502" y1="0.42517358" y2="0.5543388"><stop offset="0" stop-color="#ffffff"></stop><stop offset="1" stop-color="#ffffff" stop-opacity="0"></stop></linearGradient><linearGradient gradientUnits="objectBoundingBox" id="linearGradient-37" node-id="100" spreadMethod="pad" x1="0.14240597" x2="0.24201502" y1="0.41318113" y2="0.56304765"><stop offset="0" stop-color="#ffffff"></stop><stop offset="1" stop-color="#ffffff" stop-opacity="0"></stop></linearGradient><linearGradient gradientUnits="objectBoundingBox" id="linearGradient-39" node-id="105" spreadMethod="pad" x1="0.5" x2="0.5" y1="0" y2="0.94618016"><stop offset="0" stop-color="#ffeecc"></stop><stop offset="1" stop-color="#ffcd69"></stop></linearGradient><radialGradient cx="0.3410845" cy="0.27696347" fx="0.3410845" fy="0.27696347" gradientUnits="objectBoundingBox" id="radialGradient-19" node-id="53" r="0.6299243" rev="1" spreadMethod="pad"><stop offset="0" stop-color="#ffb07a"></stop><stop offset="1" stop-color="#ff4d10"></stop></radialGradient><filter filterUnits="objectBoundingBox" height="1097.1309" id="filter-2" node-id="8" width="1080.663" x="-211.52695" y="-119.17715"><feOffset color-interpolation-filters="linearRGB" dx="0" dy="75" in="SourceAlpha" result="shadowOffsetOuter1"></feOffset><feGaussianBlur color-interpolation-filters="linearRGB" in="shadowOffsetOuter1" result="shadowBlurOuter1" stdDeviation="50 50"></feGaussianBlur><feColorMatrix color-interpolation-filters="linearRGB" in="shadowBlurOuter1" result="shadowMatrixOuter1" type="matrix" values="0 0 0 0 1 0 0 0 0 0.5372549 0 0 0 0 0.08627451 0 0 0 0.27698863 0"></feColorMatrix><feMerge color-interpolation-filters="linearRGB" result="result4"><feMergeNode in="shadowMatrixOuter1"></feMergeNode><feMergeNode in="SourceGraphic"></feMergeNode></feMerge></filter><filter filterUnits="objectBoundingBox" height="651.2" id="filter-6" node-id="19" width="706.1315" x="-50.03036" y="-50.6"><feGaussianBlur color-interpolation-filters="linearRGB" in="SourceAlpha" result="shadowBlurInner1" stdDeviation="31.5 31.5"></feGaussianBlur><feOffset color-interpolation-filters="linearRGB" dx="0" dy="-38" in="shadowBlurInner1" result="shadowOffsetInner1"></feOffset><feComposite color-interpolation-filters="linearRGB" in="shadowOffsetInner1" in2="SourceAlpha" k1="0" k2="-1" k3="1" k4="0" operator="arithmetic" result="shadowInnerInner1"></feComposite><feColorMatrix color-interpolation-filters="linearRGB" in="shadowInnerInner1" result="result4" type="matrix" values="0 0 0 0 0.90370244 0 0 0 0 0.15061708 0 0 0 0 0 0 0 0 1 0"></feColorMatrix></filter><filter filterUnits="objectBoundingBox" height="368.36212" id="filter-8" node-id="27" width="394.1815" x="301.50125" y="235.32457"><feGaussianBlur color-interpolation-filters="linearRGB" in="SourceGraphic" result="result1" stdDeviation="12.5 12.5"></feGaussianBlur></filter><filter filterUnits="objectBoundingBox" height="349.97827" id="filter-10" node-id="32" width="442.65924" x="-41.284206" y="214.96643"><feGaussianBlur color-interpolation-filters="linearRGB" in="SourceGraphic" result="result1" stdDeviation="20 20"></feGaussianBlur></filter><filter filterUnits="objectBoundingBox" height="250.07498" id="filter-14" node-id="38" width="199.99998" x="-37.5" y="-37.45"><feOffset color-interpolation-filters="linearRGB" dx="0" dy="0" in="SourceAlpha" result="shadowOffsetOuter1"></feOffset><feGaussianBlur color-interpolation-filters="linearRGB" in="shadowOffsetOuter1" result="shadowBlurOuter1" stdDeviation="12.5 12.5"></feGaussianBlur><feColorMatrix color-interpolation-filters="linearRGB" in="shadowBlurOuter1" result="result3" type="matrix" values="0 0 0 0 0.88323706 0 0 0 0 0.24299243 0 0 0 0 0.038742602 0 0 0 0.768302 0"></feColorMatrix></filter><filter filterUnits="objectBoundingBox" height="256.05078" id="filter-17" node-id="46" width="218.75" x="-46.875" y="-46.923702"><feGaussianBlur color-interpolation-filters="linearRGB" in="SourceGraphic" result="result1" stdDeviation="15.625 15.625"></feGaussianBlur></filter><filter filterUnits="objectBoundingBox" height="281.0551" id="filter-18" node-id="48" width="243.75" x="-59.375" y="-59.425865"><feGaussianBlur color-interpolation-filters="linearRGB" in="SourceAlpha" result="shadowBlurInner1" stdDeviation="12.5 12.5"></feGaussianBlur><feOffset color-interpolation-filters="linearRGB" dx="0" dy="0" in="shadowBlurInner1" result="shadowOffsetInner1"></feOffset><feComposite color-interpolation-filters="linearRGB" in="shadowOffsetInner1" in2="SourceAlpha" k1="0" k2="-1" k3="1" k4="0" operator="arithmetic" result="shadowInnerInner1"></feComposite><feColorMatrix color-interpolation-filters="linearRGB" in="shadowInnerInner1" result="result4" type="matrix" values="0 0 0 0 1 0 0 0 0 0.60784316 0 0 0 0 0.19215687 0 0 0 1 0"></feColorMatrix></filter><filter filterUnits="objectBoundingBox" height="375" id="filter-22" node-id="62" width="700" x="-43.621857" y="-31.99358"><feGaussianBlur color-interpolation-filters="linearRGB" in="SourceGraphic" result="result1" stdDeviation="12.5 12.5"></feGaussianBlur></filter><filter filterUnits="objectBoundingBox" height="363.61346" id="filter-28" node-id="75" width="450.09998" x="-50.050003" y="-50.06272"><feGaussianBlur color-interpolation-filters="linearRGB" in="SourceAlpha" result="shadowBlurInner1" stdDeviation="37.5 37.5"></feGaussianBlur><feOffset color-interpolation-filters="linearRGB" dx="0" dy="-25" in="shadowBlurInner1" result="shadowOffsetInner1"></feOffset><feComposite color-interpolation-filters="linearRGB" in="shadowOffsetInner1" in2="SourceAlpha" k1="0" k2="-1" k3="1" k4="0" operator="arithmetic" result="shadowInnerInner1"></feComposite><feColorMatrix color-interpolation-filters="linearRGB" in="shadowInnerInner1" result="result4" type="matrix" values="0 0 0 0 1 0 0 0 0 0.26293105 0 0 0 0 0 0 0 0 1 0"></feColorMatrix></filter><filter filterUnits="objectBoundingBox" height="197.72939" id="filter-30" node-id="83" width="371.1637" x="-34.186478" y="-36.491882"><feGaussianBlur color-interpolation-filters="linearRGB" in="SourceGraphic" result="result1" stdDeviation="12.5 12.5"></feGaussianBlur></filter><filter filterUnits="objectBoundingBox" height="399.90002" id="filter-34" node-id="90" width="725" x="-50" y="-50.100002"><feGaussianBlur color-interpolation-filters="linearRGB" in="SourceAlpha" result="shadowBlurInner1" stdDeviation="50 50"></feGaussianBlur><feOffset color-interpolation-filters="linearRGB" dx="0" dy="0" in="shadowBlurInner1" result="shadowOffsetInner1"></feOffset><feComposite color-interpolation-filters="linearRGB" in="shadowOffsetInner1" in2="SourceAlpha" k1="0" k2="-1" k3="1" k4="0" operator="arithmetic" result="shadowInnerInner1"></feComposite><feColorMatrix color-interpolation-filters="linearRGB" in="shadowInnerInner1" result="result4" type="matrix" values="0 0 0 0 1 0 0 0 0 0.57398057 0 0 0 0 0.14796112 0 0 0 1 0"></feColorMatrix></filter><filter filterUnits="objectBoundingBox" height="345" id="filter-36" node-id="98" width="708.0999" x="-43.29244" y="-43.81629"><feGaussianBlur color-interpolation-filters="linearRGB" in="SourceGraphic" result="result1" stdDeviation="20 20"></feGaussianBlur></filter><filter filterUnits="objectBoundingBox" height="1725.0752" id="filter-38" node-id="103" width="2088.1409" x="-733.313" y="-733.8413"><feGaussianBlur color-interpolation-filters="linearRGB" in="SourceGraphic" result="result1" stdDeviation="250 250"></feGaussianBlur></filter><filter filterUnits="objectBoundingBox" height="570.0203" id="filter-41" node-id="109" width="608.8515" x="-111.60596" y="-97.503586"><feOffset color-interpolation-filters="linearRGB" dx="0" dy="0" in="SourceAlpha" result="shadowOffsetOuter1"></feOffset><feGaussianBlur color-interpolation-filters="linearRGB" in="shadowOffsetOuter1" result="shadowBlurOuter1" stdDeviation="50 50"></feGaussianBlur><feComposite color-interpolation-filters="linearRGB" in="shadowBlurOuter1" in2="SourceAlpha" operator="out" result="shadowBlurOuter1"></feComposite><feColorMatrix color-interpolation-filters="linearRGB" in="shadowBlurOuter1" result="result4" type="matrix" values="0 0 0 0 1 0 0 0 0 0.5176471 0 0 0 0 0.06666667 0 0 0 0.60440344 0"></feColorMatrix></filter><filter filterUnits="objectBoundingBox" height="592.53876" id="filter-42" node-id="114" width="632.8539" x="-123.43816" y="-108.59478"><feGaussianBlur color-interpolation-filters="linearRGB" in="SourceAlpha" result="shadowBlurInner1" stdDeviation="50 50"></feGaussianBlur><feOffset color-interpolation-filters="linearRGB" dx="0" dy="25" in="shadowBlurInner1" result="shadowOffsetInner1"></feOffset><feComposite color-interpolation-filters="linearRGB" in="shadowOffsetInner1" in2="SourceAlpha" k1="0" k2="-1" k3="1" k4="0" operator="arithmetic" result="shadowInnerInner1"></feComposite><feColorMatrix color-interpolation-filters="linearRGB" in="shadowInnerInner1" result="result4" type="matrix" values="0 0 0 0 1 0 0 0 0 1 0 0 0 0 1 0 0 0 0.8260216 0"></feColorMatrix></filter><mask height="403.31628" id="mask-5" maskUnits="userSpaceOnUse" node-id="126" width="405.6756" x="532.1425" y="507.84753"><path d="M 299.40 290.00 L 800.00 290.00 L 805.20 290.30 L 810.10 291.00 L 814.90 292.20 L 819.50 293.90 L 823.90 296.10 L 828.00 298.50 L 831.80 301.40 L 835.40 304.60 L 838.60 308.20 L 841.50 312.00 L 843.90 316.10 L 846.10 320.50 L 847.80 325.10 L 849.00 329.90 L 849.70 334.80 L 850.00 340.00 L 850.00 782.50 L 792.40 840.00 L 294.90 840.00 L 286.20 839.20 L 281.90 838.30 L 273.70 835.30 L 266.20 830.90 L 260.40 826.30 L 257.10 823.20 L 254.20 819.90 L 251.60 816.30 L 249.40 812.50 L 247.60 808.60 L 246.20 804.40 L 245.20 800.10 L 244.60 795.80 L 244.40 791.30 L 249.40 339.40 L 249.80 334.30 L 250.60 329.40 L 251.80 324.70 L 253.50 320.20 L 255.70 315.80 L 258.20 311.70 L 261.10 308.00 L 264.30 304.40 L 267.80 301.30 L 271.70 298.40 L 275.70 296.00 L 280.10 293.90 L 284.70 292.20 L 289.40 291.00 L 294.30 290.30 L 299.40 290.00 Z" fill="#ffffff" fill-rule="evenodd" node-id="403" stroke="none" target-height="550" target-width="605.6" target-x="244.4" target-y="290"></path></mask><mask height="261.0155" id="mask1" maskUnits="userSpaceOnUse" node-id="407" width="372.24326" x="244.44675" y="543.2487"><path d="M 299.40 290.00 L 800.00 290.00 L 805.20 290.30 L 810.10 291.00 L 814.90 292.20 L 819.50 293.90 L 823.90 296.10 L 828.00 298.50 L 831.80 301.40 L 835.40 304.60 L 838.60 308.20 L 841.50 312.00 L 843.90 316.10 L 846.10 320.50 L 847.80 325.10 L 849.00 329.90 L 849.70 334.80 L 850.00 340.00 L 850.00 782.50 L 792.40 840.00 L 294.90 840.00 L 286.20 839.20 L 281.90 838.30 L 273.70 835.30 L 266.20 830.90 L 260.40 826.30 L 257.10 823.20 L 254.20 819.90 L 251.60 816.30 L 249.40 812.50 L 247.60 808.60 L 246.20 804.40 L 245.20 800.10 L 244.60 795.80 L 244.40 791.30 L 249.40 339.40 L 249.80 334.30 L 250.60 329.40 L 251.80 324.70 L 253.50 320.20 L 255.70 315.80 L 258.20 311.70 L 261.10 308.00 L 264.30 304.40 L 267.80 301.30 L 271.70 298.40 L 275.70 296.00 L 280.10 293.90 L 284.70 292.20 L 289.40 291.00 L 294.30 290.30 L 299.40 290.00 Z" fill="#ffffff" fill-rule="evenodd" node-id="411" stroke="none" target-height="550" target-width="605.6" target-x="244.4" target-y="290"></path></mask><mask height="215.10693" id="mask4" maskUnits="userSpaceOnUse" node-id="415" width="157.2373" x="3356.7476" y="5236.72"><path d="M 3329.70 5028.00 L 3829.90 5045.50 L 3835.10 5046.00 L 3840.00 5046.90 L 3844.70 5048.30 L 3849.30 5050.10 L 3853.60 5052.40 L 3857.60 5055.00 L 3861.30 5058.00 L 3864.80 5061.40 L 3867.90 5065.10 L 3870.60 5069.00 L 3872.90 5073.20 L 3876.40 5082.30 L 3877.50 5087.00 L 3878.10 5092.00 L 3878.20 5097.20 L 3862.70 5539.50 L 3803.20 5594.90 L 3306.00 5577.50 L 3297.20 5576.50 L 3293.00 5575.40 L 3284.90 5572.10 L 3277.60 5567.50 L 3272.00 5562.60 L 3268.80 5559.50 L 3266.00 5556.00 L 3263.60 5552.40 L 3259.80 5544.50 L 3257.60 5536.00 L 3257.20 5527.10 L 3278.00 5075.70 L 3278.50 5070.60 L 3280.90 5061.00 L 3282.80 5056.60 L 3285.10 5052.30 L 3287.70 5048.30 L 3290.70 5044.70 L 3294.00 5041.30 L 3297.70 5038.20 L 3305.80 5033.20 L 3310.20 5031.20 L 3314.80 5029.70 L 3324.50 5028.10 L 3329.70 5028.00 Z" fill="#ffffff" fill-rule="evenodd" node-id="419" stroke="none" target-height="566.8999" target-width="621" target-x="3257.2" target-y="5028"></path></mask><mask height="194.83891" id="mask-13" maskUnits="userSpaceOnUse" node-id="135" width="150" x="-12.5" y="-16.236576"><path d="M 46.90 0.00 L 78.10 0.00 L 83.00 0.30 L 87.60 1.00 L 92.10 2.10 L 96.40 3.70 L 100.50 5.70 L 104.30 8.00 L 107.90 10.70 L 111.30 13.70 L 114.30 17.10 L 117.00 20.70 L 119.30 24.50 L 121.30 28.60 L 122.90 32.90 L 124.00 37.40 L 124.70 42.00 L 125.00 46.90 L 125.00 128.10 L 124.70 133.00 L 124.00 137.60 L 122.90 142.10 L 121.30 146.40 L 119.30 150.50 L 117.00 154.30 L 114.30 157.90 L 111.30 161.30 L 107.90 164.30 L 104.30 167.00 L 100.50 169.30 L 96.40 171.30 L 92.10 172.90 L 87.60 174.00 L 83.00 174.70 L 78.10 175.00 L 46.90 175.00 L 42.00 174.70 L 37.40 174.00 L 32.90 172.90 L 28.60 171.30 L 24.50 169.30 L 20.70 167.00 L 17.10 164.30 L 13.70 161.30 L 10.70 157.90 L 8.00 154.30 L 5.70 150.50 L 3.70 146.40 L 2.10 142.10 L 1.00 137.60 L 0.30 133.00 L 0.00 128.10 L 0.00 46.90 L 0.30 42.00 L 1.00 37.40 L 2.10 32.90 L 3.70 28.60 L 5.70 24.50 L 8.00 20.70 L 10.70 17.10 L 13.70 13.70 L 17.10 10.70 L 20.70 8.00 L 24.50 5.70 L 28.60 3.70 L 32.90 2.10 L 37.40 1.00 L 42.00 0.30 L 46.90 0.00 Z" fill="#ffffff" fill-rule="evenodd" node-id="426" stroke="none" target-height="175" target-width="125" target-x="0" target-y="0"></path></mask><mask height="194.83891" id="mask2" maskUnits="userSpaceOnUse" node-id="430" width="150" x="-12.5" y="-16.236576"><path d="M 46.90 0.00 L 78.10 0.00 L 83.00 0.30 L 87.60 1.00 L 92.10 2.10 L 96.40 3.70 L 100.50 5.70 L 104.30 8.00 L 107.90 10.70 L 111.30 13.70 L 114.30 17.10 L 117.00 20.70 L 119.30 24.50 L 121.30 28.60 L 122.90 32.90 L 124.00 37.40 L 124.70 42.00 L 125.00 46.90 L 125.00 128.10 L 124.70 133.00 L 124.00 137.60 L 122.90 142.10 L 121.30 146.40 L 119.30 150.50 L 117.00 154.30 L 114.30 157.90 L 111.30 161.30 L 107.90 164.30 L 104.30 167.00 L 100.50 169.30 L 96.40 171.30 L 92.10 172.90 L 87.60 174.00 L 83.00 174.70 L 78.10 175.00 L 46.90 175.00 L 42.00 174.70 L 37.40 174.00 L 32.90 172.90 L 28.60 171.30 L 24.50 169.30 L 20.70 167.00 L 17.10 164.30 L 13.70 161.30 L 10.70 157.90 L 8.00 154.30 L 5.70 150.50 L 3.70 146.40 L 2.10 142.10 L 1.00 137.60 L 0.30 133.00 L 0.00 128.10 L 0.00 46.90 L 0.30 42.00 L 1.00 37.40 L 2.10 32.90 L 3.70 28.60 L 5.70 24.50 L 8.00 20.70 L 10.70 17.10 L 13.70 13.70 L 17.10 10.70 L 20.70 8.00 L 24.50 5.70 L 28.60 3.70 L 32.90 2.10 L 37.40 1.00 L 42.00 0.30 L 46.90 0.00 Z" fill="#ffffff" fill-rule="evenodd" node-id="434" stroke="none" target-height="175" target-width="125" target-x="0" target-y="0"></path></mask><mask height="63.749992" id="mask3" maskUnits="userSpaceOnUse" node-id="438" width="63.749996" x="30.79308" y="72.096596"><path d="M 46.90 0.00 L 78.10 0.00 L 83.00 0.30 L 87.60 1.00 L 92.10 2.10 L 96.40 3.70 L 100.50 5.70 L 104.30 8.00 L 107.90 10.70 L 111.30 13.70 L 114.30 17.10 L 117.00 20.70 L 119.30 24.50 L 121.30 28.60 L 122.90 32.90 L 124.00 37.40 L 124.70 42.00 L 125.00 46.90 L 125.00 128.10 L 124.70 133.00 L 124.00 137.60 L 122.90 142.10 L 121.30 146.40 L 119.30 150.50 L 117.00 154.30 L 114.30 157.90 L 111.30 161.30 L 107.90 164.30 L 104.30 167.00 L 100.50 169.30 L 96.40 171.30 L 92.10 172.90 L 87.60 174.00 L 83.00 174.70 L 78.10 175.00 L 46.90 175.00 L 42.00 174.70 L 37.40 174.00 L 32.90 172.90 L 28.60 171.30 L 24.50 169.30 L 20.70 167.00 L 17.10 164.30 L 13.70 161.30 L 10.70 157.90 L 8.00 154.30 L 5.70 150.50 L 3.70 146.40 L 2.10 142.10 L 1.00 137.60 L 0.30 133.00 L 0.00 128.10 L 0.00 46.90 L 0.30 42.00 L 1.00 37.40 L 2.10 32.90 L 3.70 28.60 L 5.70 24.50 L 8.00 20.70 L 10.70 17.10 L 13.70 13.70 L 17.10 10.70 L 20.70 8.00 L 24.50 5.70 L 28.60 3.70 L 32.90 2.10 L 37.40 1.00 L 42.00 0.30 L 46.90 0.00 Z" fill="#ffffff" fill-rule="evenodd" node-id="442" stroke="none" target-height="175" target-width="125" target-x="0" target-y="0"></path></mask><mask height="360" id="mask5" maskUnits="userSpaceOnUse" node-id="446" width="750.00006" x="175.54193" y="265.5064"><path d="M 299.40 290.00 L 800.00 290.00 L 805.20 290.30 L 810.10 291.00 L 814.90 292.20 L 819.50 293.90 L 823.90 296.10 L 828.00 298.50 L 831.80 301.40 L 835.40 304.60 L 838.60 308.20 L 841.50 312.00 L 843.90 316.10 L 846.10 320.50 L 847.80 325.10 L 849.00 329.90 L 849.70 334.80 L 850.00 340.00 L 850.00 782.50 L 792.40 840.00 L 294.90 840.00 L 286.20 839.20 L 281.90 838.30 L 273.70 835.30 L 266.20 830.90 L 260.40 826.30 L 257.10 823.20 L 254.20 819.90 L 251.60 816.30 L 249.40 812.50 L 247.60 808.60 L 246.20 804.40 L 245.20 800.10 L 244.60 795.80 L 244.40 791.30 L 249.40 339.40 L 249.80 334.30 L 250.60 329.40 L 251.80 324.70 L 253.50 320.20 L 255.70 315.80 L 258.20 311.70 L 261.10 308.00 L 264.30 304.40 L 267.80 301.30 L 271.70 298.40 L 275.70 296.00 L 280.10 293.90 L 284.70 292.20 L 289.40 291.00 L 294.30 290.30 L 299.40 290.00 Z" fill="#ffffff" fill-rule="evenodd" node-id="450" stroke="none" target-height="550" target-width="605.6" target-x="244.4" target-y="290"></path></mask><mask height="471.5865" id="mask6" maskUnits="userSpaceOnUse" node-id="454" width="63.041275" x="223.34395" y="400.68793"><path d="M 299.40 290.00 L 800.00 290.00 L 805.20 290.30 L 810.10 291.00 L 814.90 292.20 L 819.50 293.90 L 823.90 296.10 L 828.00 298.50 L 831.80 301.40 L 835.40 304.60 L 838.60 308.20 L 841.50 312.00 L 843.90 316.10 L 846.10 320.50 L 847.80 325.10 L 849.00 329.90 L 849.70 334.80 L 850.00 340.00 L 850.00 782.50 L 792.40 840.00 L 294.90 840.00 L 286.20 839.20 L 281.90 838.30 L 273.70 835.30 L 266.20 830.90 L 260.40 826.30 L 257.10 823.20 L 254.20 819.90 L 251.60 816.30 L 249.40 812.50 L 247.60 808.60 L 246.20 804.40 L 245.20 800.10 L 244.60 795.80 L 244.40 791.30 L 249.40 339.40 L 249.80 334.30 L 250.60 329.40 L 251.80 324.70 L 253.50 320.20 L 255.70 315.80 L 258.20 311.70 L 261.10 308.00 L 264.30 304.40 L 267.80 301.30 L 271.70 298.40 L 275.70 296.00 L 280.10 293.90 L 284.70 292.20 L 289.40 291.00 L 294.30 290.30 L 299.40 290.00 Z" fill="#ffffff" fill-rule="evenodd" node-id="458" stroke="none" target-height="550" target-width="605.6" target-x="244.4" target-y="290"></path></mask><mask height="52.38391" id="mask7" maskUnits="userSpaceOnUse" node-id="462" width="63.207092" x="223.33014" y="784.95703"><path d="M 299.40 290.00 L 800.00 290.00 L 805.20 290.30 L 810.10 291.00 L 814.90 292.20 L 819.50 293.90 L 823.90 296.10 L 828.00 298.50 L 831.80 301.40 L 835.40 304.60 L 838.60 308.20 L 841.50 312.00 L 843.90 316.10 L 846.10 320.50 L 847.80 325.10 L 849.00 329.90 L 849.70 334.80 L 850.00 340.00 L 850.00 782.50 L 792.40 840.00 L 294.90 840.00 L 286.20 839.20 L 281.90 838.30 L 273.70 835.30 L 266.20 830.90 L 260.40 826.30 L 257.10 823.20 L 254.20 819.90 L 251.60 816.30 L 249.40 812.50 L 247.60 808.60 L 246.20 804.40 L 245.20 800.10 L 244.60 795.80 L 244.40 791.30 L 249.40 339.40 L 249.80 334.30 L 250.60 329.40 L 251.80 324.70 L 253.50 320.20 L 255.70 315.80 L 258.20 311.70 L 261.10 308.00 L 264.30 304.40 L 267.80 301.30 L 271.70 298.40 L 275.70 296.00 L 280.10 293.90 L 284.70 292.20 L 289.40 291.00 L 294.30 290.30 L 299.40 290.00 Z" fill="#ffffff" fill-rule="evenodd" node-id="466" stroke="none" target-height="550" target-width="605.6" target-x="244.4" target-y="290"></path></mask><mask height="132.33421" id="mask-27" maskUnits="userSpaceOnUse" node-id="149" width="340.2571" x="362.36313" y="178.94844"><path d="M 650.00 176.50 L 656.20 176.80 L 662.20 177.50 L 668.10 178.70 L 673.70 180.30 L 679.20 182.40 L 684.50 184.90 L 689.50 187.70 L 694.30 191.00 L 698.80 194.60 L 703.00 198.50 L 706.90 202.70 L 710.50 207.20 L 713.80 212.00 L 716.60 217.00 L 719.10 222.30 L 721.20 227.80 L 722.80 233.50 L 724.00 239.30 L 724.70 245.30 L 725.00 251.50 L 725.00 365.00 L 724.70 371.20 L 724.00 377.20 L 722.80 383.10 L 721.20 388.70 L 719.10 394.20 L 716.60 399.50 L 713.80 404.50 L 710.50 409.30 L 706.90 413.80 L 703.00 418.00 L 698.80 421.90 L 694.30 425.50 L 689.50 428.80 L 684.50 431.60 L 679.20 434.10 L 673.70 436.20 L 668.10 437.80 L 662.20 439.00 L 656.20 439.70 L 650.00 440.00 L 450.00 440.00 L 443.80 439.70 L 437.80 439.00 L 431.90 437.80 L 426.30 436.20 L 420.80 434.10 L 415.50 431.60 L 410.50 428.80 L 405.70 425.50 L 401.20 421.90 L 397.00 418.00 L 393.10 413.80 L 389.50 409.30 L 386.20 404.50 L 383.40 399.50 L 380.90 394.20 L 378.80 388.70 L 377.20 383.10 L 376.00 377.20 L 375.30 371.20 L 375.00 365.00 L 375.00 251.50 L 375.30 245.30 L 376.00 239.30 L 377.20 233.50 L 378.80 227.80 L 380.90 222.30 L 383.40 217.00 L 386.20 212.00 L 389.50 207.20 L 393.10 202.70 L 397.00 198.50 L 401.20 194.60 L 405.70 191.00 L 410.50 187.70 L 415.50 184.90 L 420.80 182.40 L 426.30 180.30 L 431.90 178.70 L 437.80 177.50 L 443.80 176.80 L 450.00 176.50 L 650.00 176.50 Z M 650.00 226.50 L 450.00 226.50 L 446.60 226.80 L 443.30 227.40 L 440.30 228.50 L 437.40 229.90 L 434.70 231.70 L 432.30 233.80 L 430.20 236.20 L 428.40 238.90 L 427.00 241.80 L 425.90 244.80 L 425.20 248.10 L 425.00 251.50 L 425.00 365.00 L 425.20 368.40 L 425.90 371.70 L 427.00 374.70 L 428.40 377.60 L 430.20 380.30 L 432.30 382.70 L 434.70 384.80 L 437.40 386.60 L 440.30 388.00 L 443.30 389.10 L 446.60 389.80 L 450.00 390.00 L 650.00 390.00 L 653.40 389.80 L 656.70 389.10 L 659.70 388.00 L 662.60 386.60 L 665.30 384.80 L 667.70 382.70 L 669.80 380.30 L 671.60 377.60 L 673.00 374.70 L 674.10 371.70 L 674.80 368.40 L 675.00 365.00 L 675.00 251.50 L 674.80 248.10 L 674.10 244.80 L 673.00 241.80 L 671.60 238.90 L 669.80 236.20 L 667.70 233.80 L 665.30 231.70 L 662.60 229.90 L 659.70 228.50 L 656.70 227.40 L 653.40 226.80 L 650.00 226.50 Z" fill="#ffffff" fill-rule="evenodd" node-id="473" stroke="none" target-height="263.5" target-width="350" target-x="375" target-y="176.5"></path></mask><mask height="240.00003" id="mask-33" maskUnits="userSpaceOnUse" node-id="156" width="675.453" x="210.53099" y="273.5837"><path d="M 287.50 265.00 L 812.50 265.00 L 817.70 265.30 L 822.60 266.00 L 827.40 267.20 L 832.00 268.90 L 836.40 271.10 L 840.50 273.50 L 844.30 276.40 L 847.90 279.60 L 851.10 283.20 L 854.00 287.00 L 856.40 291.10 L 858.60 295.50 L 860.30 300.10 L 861.50 304.90 L 862.20 309.80 L 862.50 315.00 L 862.50 515.00 L 862.20 520.20 L 861.50 525.10 L 860.30 529.90 L 858.60 534.50 L 856.40 538.90 L 854.00 543.00 L 851.10 546.80 L 847.90 550.40 L 844.30 553.60 L 840.50 556.50 L 836.40 558.90 L 832.00 561.10 L 827.40 562.80 L 822.60 564.00 L 817.70 564.70 L 812.50 565.00 L 287.50 565.00 L 282.30 564.70 L 277.40 564.00 L 272.60 562.80 L 268.00 561.10 L 263.60 558.90 L 259.50 556.50 L 255.70 553.60 L 252.10 550.40 L 248.90 546.80 L 246.00 543.00 L 243.60 538.90 L 241.40 534.50 L 239.70 529.90 L 238.50 525.10 L 237.80 520.20 L 237.50 515.00 L 237.50 315.00 L 237.80 309.80 L 238.50 304.90 L 239.70 300.10 L 241.40 295.50 L 243.60 291.10 L 246.00 287.00 L 248.90 283.20 L 252.10 279.60 L 255.70 276.40 L 259.50 273.50 L 263.60 271.10 L 268.00 268.90 L 272.60 267.20 L 277.40 266.00 L 282.30 265.30 L 287.50 265.00 Z" fill="#ffffff" fill-rule="evenodd" node-id="480" stroke="none" target-height="300" target-width="625" target-x="237.5" target-y="265"></path></mask><mask height="270.00003" id="mask8" maskUnits="userSpaceOnUse" node-id="484" width="705.453" x="195.53099" y="258.5837"><path d="M 287.50 265.00 L 812.50 265.00 L 817.70 265.30 L 822.60 266.00 L 827.40 267.20 L 832.00 268.90 L 836.40 271.10 L 840.50 273.50 L 844.30 276.40 L 847.90 279.60 L 851.10 283.20 L 854.00 287.00 L 856.40 291.10 L 858.60 295.50 L 860.30 300.10 L 861.50 304.90 L 862.20 309.80 L 862.50 315.00 L 862.50 515.00 L 862.20 520.20 L 861.50 525.10 L 860.30 529.90 L 858.60 534.50 L 856.40 538.90 L 854.00 543.00 L 851.10 546.80 L 847.90 550.40 L 844.30 553.60 L 840.50 556.50 L 836.40 558.90 L 832.00 561.10 L 827.40 562.80 L 822.60 564.00 L 817.70 564.70 L 812.50 565.00 L 287.50 565.00 L 282.30 564.70 L 277.40 564.00 L 272.60 562.80 L 268.00 561.10 L 263.60 558.90 L 259.50 556.50 L 255.70 553.60 L 252.10 550.40 L 248.90 546.80 L 246.00 543.00 L 243.60 538.90 L 241.40 534.50 L 239.70 529.90 L 238.50 525.10 L 237.80 520.20 L 237.50 515.00 L 237.50 315.00 L 237.80 309.80 L 238.50 304.90 L 239.70 300.10 L 241.40 295.50 L 243.60 291.10 L 246.00 287.00 L 248.90 283.20 L 252.10 279.60 L 255.70 276.40 L 259.50 273.50 L 263.60 271.10 L 268.00 268.90 L 272.60 267.20 L 277.40 266.00 L 282.30 265.30 L 287.50 265.00 Z" fill="#ffffff" fill-rule="evenodd" node-id="488" stroke="none" target-height="300" target-width="625" target-x="237.5" target-y="265"></path></mask></defs><path d="M 0.00 0.00 L 1100.00 0.00 L 1100.00 1100.00 L 0.00 1100.00 Z" fill="#ffffff" fill-rule="evenodd" node-id="494" stroke="none" target-height="1100" target-width="1100" target-x="0" target-y="0"></path><g node-id="636"><path d="M 50.00 90.00 L 1050.00 90.00 L 1050.00 1090.00 L 50.00 1090.00 Z" fill="none" group-id="1" id="矩形" node-id="122" stroke="none" target-height="1000" target-width="1000" target-x="50" target-y="90"></path><path d="M 550.00 1090.00 L 565.40 1089.80 L 580.60 1089.10 L 595.70 1087.90 L 610.60 1086.40 L 625.30 1084.40 L 639.90 1082.00 L 657.40 1078.50 L 674.50 1074.40 L 691.50 1069.80 L 708.10 1064.60 L 724.50 1058.90 L 740.70 1052.50 L 756.60 1045.70 L 772.10 1038.30 L 787.40 1030.40 L 802.40 1022.00 L 817.00 1013.10 L 831.40 1003.80 L 845.30 994.00 L 858.90 983.70 L 872.10 972.90 L 885.00 961.70 L 897.50 950.20 L 909.50 938.20 L 921.20 925.80 L 932.40 912.90 L 943.20 899.80 L 953.50 886.20 L 963.40 872.30 L 972.80 858.10 L 981.70 843.50 L 990.20 828.60 L 998.10 813.40 L 1005.50 797.90 L 1012.30 782.10 L 1018.70 765.90 L 1024.50 749.60 L 1029.70 733.10 L 1034.40 716.20 L 1038.40 699.10 L 1041.90 681.70 L 1044.40 667.20 L 1046.40 652.60 L 1047.90 637.70 L 1049.10 622.70 L 1049.80 607.60 L 1050.00 592.20 L 1049.70 580.80 L 1048.90 570.00 L 1047.50 559.70 L 1045.70 550.00 L 1043.40 540.80 L 1040.70 532.10 L 1037.40 523.30 L 1033.50 514.90 L 1029.30 506.90 L 1024.50 499.20 L 1019.40 491.90 L 1013.70 485.00 L 1007.60 478.40 L 1001.10 472.10 L 994.20 466.10 L 986.70 460.30 L 978.70 454.70 L 970.20 449.40 L 959.90 443.70 L 949.00 438.30 L 937.30 433.20 L 924.80 428.40 L 911.50 423.90 L 898.50 419.90 L 884.70 416.20 L 870.20 412.80 L 854.90 409.60 L 838.90 406.70 L 819.20 403.60 L 798.50 400.90 L 776.60 398.40 L 753.60 396.40 L 723.10 394.20 L 690.90 392.50 L 656.90 391.30 L 622.80 390.60 L 550.00 390.00 L 477.20 390.60 L 443.10 391.40 L 409.10 392.70 L 376.90 394.50 L 346.40 396.80 L 323.40 398.90 L 301.50 401.40 L 280.80 404.30 L 261.10 407.40 L 245.10 410.40 L 229.80 413.70 L 215.30 417.20 L 201.50 420.90 L 188.50 424.90 L 175.20 429.50 L 162.70 434.40 L 151.00 439.50 L 140.10 445.00 L 129.80 450.70 L 121.30 456.00 L 113.30 461.50 L 105.80 467.30 L 98.80 473.40 L 92.30 479.60 L 86.30 486.20 L 80.60 493.10 L 75.40 500.40 L 70.70 507.90 L 66.40 515.90 L 62.60 524.20 L 59.30 532.90 L 56.60 541.50 L 54.30 550.60 L 52.40 560.20 L 51.10 570.40 L 50.30 581.00 L 50.00 592.20 L 50.20 607.60 L 50.90 622.70 L 52.10 637.70 L 53.60 652.60 L 55.60 667.20 L 58.10 681.70 L 61.60 699.10 L 65.60 716.20 L 70.30 733.10 L 75.50 749.60 L 81.30 765.90 L 87.70 782.10 L 94.50 797.90 L 101.90 813.40 L 109.80 828.60 L 118.30 843.50 L 127.20 858.10 L 136.60 872.30 L 146.50 886.20 L 156.80 899.80 L 167.60 912.90 L 178.80 925.80 L 190.50 938.20 L 202.50 950.20 L 215.00 961.70 L 227.90 972.90 L 241.10 983.70 L 254.70 994.00 L 268.60 1003.80 L 283.00 1013.10 L 297.60 1022.00 L 312.60 1030.40 L 327.90 1038.30 L 343.40 1045.70 L 359.30 1052.50 L 375.50 1058.90 L 391.90 1064.60 L 408.50 1069.80 L 425.50 1074.40 L 442.60 1078.50 L 460.10 1082.00 L 474.70 1084.40 L 489.40 1086.40 L 504.30 1087.90 L 519.40 1089.10 L 534.60 1089.80 L 550.00 1090.00 Z" fill="url(#linearGradient-1)" fill-rule="evenodd" group-id="1" id="椭圆形备份-7" node-id="123" stroke="none" target-height="700" target-width="1000" target-x="50" target-y="390"></path><g node-id="637"><g node-id="639"><g node-id="646"><g node-id="661"><path d="M 299.40 290.00 L 800.00 290.00 L 805.20 290.30 L 810.10 291.00 L 814.90 292.20 L 819.50 293.90 L 823.90 296.10 L 828.00 298.50 L 831.80 301.40 L 835.40 304.60 L 838.60 308.20 L 841.50 312.00 L 843.90 316.10 L 846.10 320.50 L 847.80 325.10 L 849.00 329.90 L 849.70 334.80 L 850.00 340.00 L 850.00 782.50 L 792.40 840.00 L 294.90 840.00 L 286.20 839.20 L 281.90 838.30 L 273.70 835.30 L 266.20 830.90 L 260.40 826.30 L 257.10 823.20 L 254.20 819.90 L 251.60 816.30 L 249.40 812.50 L 247.60 808.60 L 246.20 804.40 L 245.20 800.10 L 244.60 795.80 L 244.40 791.30 L 249.40 339.40 L 249.80 334.30 L 250.60 329.40 L 251.80 324.70 L 253.50 320.20 L 255.70 315.80 L 258.20 311.70 L 261.10 308.00 L 264.30 304.40 L 267.80 301.30 L 271.70 298.40 L 275.70 296.00 L 280.10 293.90 L 284.70 292.20 L 289.40 291.00 L 294.30 290.30 L 299.40 290.00 Z" fill="url(#linearGradient-3)" fill-rule="evenodd" group-id="1,2,4,11,26" node-id="505" stroke="none" target-height="550" target-width="605.6" target-x="244.4" target-y="290"></path></g><path d="M 299.40 290.00 L 800.00 290.00 L 805.20 290.30 L 810.10 291.00 L 814.90 292.20 L 819.50 293.90 L 823.90 296.10 L 828.00 298.50 L 831.80 301.40 L 835.40 304.60 L 838.60 308.20 L 841.50 312.00 L 843.90 316.10 L 846.10 320.50 L 847.80 325.10 L 849.00 329.90 L 849.70 334.80 L 850.00 340.00 L 850.00 782.50 L 792.40 840.00 L 294.90 840.00 L 286.20 839.20 L 281.90 838.30 L 273.70 835.30 L 266.20 830.90 L 260.40 826.30 L 257.10 823.20 L 254.20 819.90 L 251.60 816.30 L 249.40 812.50 L 247.60 808.60 L 246.20 804.40 L 245.20 800.10 L 244.60 795.80 L 244.40 791.30 L 249.40 339.40 L 249.80 334.30 L 250.60 329.40 L 251.80 324.70 L 253.50 320.20 L 255.70 315.80 L 258.20 311.70 L 261.10 308.00 L 264.30 304.40 L 267.80 301.30 L 271.70 298.40 L 275.70 296.00 L 280.10 293.90 L 284.70 292.20 L 289.40 291.00 L 294.30 290.30 L 299.40 290.00 Z" fill="#000000" fill-rule="evenodd" filter="url(#filter-6)" group-id="1,2,4,11,27" node-id="510" stroke="none" target-height="550" target-width="605.6" target-x="244.4" target-y="290"></path></g><g node-id="647"><path d="M 671.90 554.70 L 577.70 653.70 L 574.90 657.00 L 570.50 663.80 L 568.90 667.50 L 566.70 675.20 L 566.10 679.10 L 566.10 687.10 L 567.60 694.80 L 568.90 698.60 L 572.50 705.80 L 577.70 712.50 L 721.70 864.30 L 724.90 867.30 L 728.30 869.90 L 731.80 872.20 L 735.60 874.00 L 739.50 875.50 L 747.40 877.20 L 755.60 877.50 L 763.70 876.10 L 767.70 874.80 L 771.50 873.20 L 775.10 871.20 L 778.60 868.70 L 782.00 865.80 L 904.00 736.30 L 733.90 554.90 L 730.70 551.90 L 727.30 549.20 L 723.80 547.00 L 720.10 545.10 L 716.20 543.60 L 712.20 542.50 L 708.20 541.80 L 700.00 541.50 L 692.00 542.80 L 688.00 544.10 L 684.20 545.70 L 680.50 547.70 L 677.00 550.10 L 671.90 554.70 Z" fill="url(#linearGradient-7)" fill-rule="evenodd" filter="url(#filter-8)" group-id="1,2,4,12" id="路径-10" node-id="131" stroke="none" target-height="336" target-width="337.90002" target-x="566.1" target-y="541.5"></path></g><g node-id="648"><path d="M 275.50 565.00 L 283.90 758.60 L 284.30 762.00 L 285.00 765.10 L 286.20 768.00 L 289.50 773.30 L 293.90 777.60 L 299.40 780.70 L 302.40 781.70 L 305.50 782.30 L 308.90 782.50 L 585.70 782.50" fill="none" filter="url(#filter-10)" group-id="1,2,4,13" id="路径-21" node-id="132" stroke="url(#linearGradient-9)" stroke-linecap="butt" stroke-opacity="0.4862351" stroke-width="25" target-height="217.5" target-width="310.2" target-x="275.5" target-y="565"></path></g><g node-id="649"><g node-id="663"><g node-id="668"><g node-id="672"><path d="M 400.50 514.90 L 431.70 514.90 L 436.60 515.10 L 441.20 515.80 L 445.70 517.00 L 450.00 518.50 L 454.10 520.50 L 457.90 522.90 L 461.50 525.50 L 464.90 528.60 L 467.90 531.90 L 470.60 535.50 L 472.90 539.40 L 474.90 543.50 L 476.50 547.80 L 477.60 552.20 L 478.30 556.90 L 478.60 561.70 L 478.60 643.00 L 478.30 647.80 L 477.60 652.50 L 476.50 656.90 L 474.90 661.20 L 472.90 665.40 L 470.60 669.20 L 467.90 672.80 L 464.90 676.10 L 461.50 679.20 L 457.90 681.80 L 454.10 684.20 L 450.00 686.20 L 445.70 687.70 L 441.20 688.90 L 436.60 689.60 L 431.70 689.90 L 400.50 689.90 L 395.60 689.60 L 391.00 688.90 L 386.50 687.70 L 382.20 686.20 L 378.10 684.20 L 374.20 681.80 L 370.70 679.20 L 367.30 676.10 L 364.30 672.80 L 361.60 669.20 L 359.30 665.40 L 357.30 661.20 L 355.70 656.90 L 354.60 652.50 L 353.90 647.80 L 353.60 643.00 L 353.60 561.70 L 353.90 556.90 L 354.60 552.20 L 355.70 547.80 L 357.30 543.50 L 359.30 539.40 L 361.60 535.50 L 364.30 531.90 L 367.30 528.60 L 370.70 525.50 L 374.20 522.90 L 378.10 520.50 L 382.20 518.50 L 386.50 517.00 L 391.00 515.80 L 395.60 515.10 L 400.50 514.90 Z" fill="#000000" fill-rule="evenodd" filter="url(#filter-14)" group-id="1,2,4,14,28,33,37" node-id="528" stroke="none" target-height="175" target-width="125" target-x="353.6" target-y="514.9"></path></g><path d="M 400.50 514.90 L 431.70 514.90 L 436.60 515.10 L 441.20 515.80 L 445.70 517.00 L 450.00 518.50 L 454.10 520.50 L 457.90 522.90 L 461.50 525.50 L 464.90 528.60 L 467.90 531.90 L 470.60 535.50 L 472.90 539.40 L 474.90 543.50 L 476.50 547.80 L 477.60 552.20 L 478.30 556.90 L 478.60 561.70 L 478.60 643.00 L 478.30 647.80 L 477.60 652.50 L 476.50 656.90 L 474.90 661.20 L 472.90 665.40 L 470.60 669.20 L 467.90 672.80 L 464.90 676.10 L 461.50 679.20 L 457.90 681.80 L 454.10 684.20 L 450.00 686.20 L 445.70 687.70 L 441.20 688.90 L 436.60 689.60 L 431.70 689.90 L 400.50 689.90 L 395.60 689.60 L 391.00 688.90 L 386.50 687.70 L 382.20 686.20 L 378.10 684.20 L 374.20 681.80 L 370.70 679.20 L 367.30 676.10 L 364.30 672.80 L 361.60 669.20 L 359.30 665.40 L 357.30 661.20 L 355.70 656.90 L 354.60 652.50 L 353.90 647.80 L 353.60 643.00 L 353.60 561.70 L 353.90 556.90 L 354.60 552.20 L 355.70 547.80 L 357.30 543.50 L 359.30 539.40 L 361.60 535.50 L 364.30 531.90 L 367.30 528.60 L 370.70 525.50 L 374.20 522.90 L 378.10 520.50 L 382.20 518.50 L 386.50 517.00 L 391.00 515.80 L 395.60 515.10 L 400.50 514.90 Z" fill="url(#linearGradient-11)" fill-rule="evenodd" group-id="1,2,4,14,28,33,38" node-id="533" stroke="none" target-height="175" target-width="125" target-x="353.6" target-y="514.9"></path></g><g node-id="669"><path d="M 400.50 514.90 L 431.70 514.90 L 436.60 515.10 L 441.20 515.80 L 445.70 517.00 L 450.00 518.50 L 454.10 520.50 L 457.90 522.90 L 461.50 525.50 L 464.90 528.60 L 467.90 531.90 L 470.60 535.50 L 472.90 539.40 L 474.90 543.50 L 476.50 547.80 L 477.60 552.20 L 478.30 556.90 L 478.60 561.70 L 478.60 630.30 L 478.30 635.20 L 477.60 639.90 L 476.50 644.30 L 474.90 648.60 L 472.90 652.70 L 470.60 656.60 L 467.90 660.20 L 464.90 663.50 L 461.50 666.50 L 457.90 669.20 L 454.10 671.50 L 450.00 673.50 L 445.70 675.10 L 441.20 676.30 L 436.60 677.00 L 431.70 677.20 L 400.50 677.20 L 395.60 677.00 L 391.00 676.30 L 386.50 675.10 L 382.20 673.50 L 378.10 671.50 L 374.20 669.20 L 370.70 666.50 L 367.30 663.50 L 364.30 660.20 L 361.60 656.60 L 359.30 652.70 L 357.30 648.60 L 355.70 644.30 L 354.60 639.90 L 353.90 635.20 L 353.60 630.30 L 353.60 561.70 L 353.90 556.90 L 354.60 552.20 L 355.70 547.80 L 357.30 543.50 L 359.30 539.40 L 361.60 535.50 L 364.30 531.90 L 367.30 528.60 L 370.70 525.50 L 374.20 522.90 L 378.10 520.50 L 382.20 518.50 L 386.50 517.00 L 391.00 515.80 L 395.60 515.10 L 400.50 514.90 Z" fill="url(#linearGradient1)" fill-rule="evenodd" group-id="1,2,4,14,28,34" id="矩形" node-id="140" stroke="none" target-height="162.29999" target-width="125" target-x="353.6" target-y="514.9"></path></g><g node-id="670"><g node-id="674"><path d="M 400.50 514.90 L 431.70 514.90 L 436.60 515.10 L 441.20 515.80 L 445.70 517.00 L 450.00 518.50 L 454.10 520.50 L 457.90 522.90 L 461.50 525.50 L 464.90 528.60 L 467.90 531.90 L 470.60 535.50 L 472.90 539.40 L 474.90 543.50 L 476.50 547.80 L 477.60 552.20 L 478.30 556.90 L 478.60 561.70 L 478.60 630.30 L 478.30 635.20 L 477.60 639.90 L 476.50 644.30 L 474.90 648.60 L 472.90 652.70 L 470.60 656.60 L 467.90 660.20 L 464.90 663.50 L 461.50 666.50 L 457.90 669.20 L 454.10 671.50 L 450.00 673.50 L 445.70 675.10 L 441.20 676.30 L 436.60 677.00 L 431.70 677.20 L 400.50 677.20 L 395.60 677.00 L 391.00 676.30 L 386.50 675.10 L 382.20 673.50 L 378.10 671.50 L 374.20 669.20 L 370.70 666.50 L 367.30 663.50 L 364.30 660.20 L 361.60 656.60 L 359.30 652.70 L 357.30 648.60 L 355.70 644.30 L 354.60 639.90 L 353.90 635.20 L 353.60 630.30 L 353.60 561.70 L 353.90 556.90 L 354.60 552.20 L 355.70 547.80 L 357.30 543.50 L 359.30 539.40 L 361.60 535.50 L 364.30 531.90 L 367.30 528.60 L 370.70 525.50 L 374.20 522.90 L 378.10 520.50 L 382.20 518.50 L 386.50 517.00 L 391.00 515.80 L 395.60 515.10 L 400.50 514.90 Z" fill="url(#linearGradient-15)" fill-rule="evenodd" group-id="1,2,4,14,28,35,39" node-id="544" stroke="none" target-height="162.29999" target-width="125" target-x="353.6" target-y="514.9"></path></g><path d="M 400.50 514.90 L 431.70 514.90 L 436.60 515.10 L 441.20 515.80 L 445.70 517.00 L 450.00 518.50 L 454.10 520.50 L 457.90 522.90 L 461.50 525.50 L 464.90 528.60 L 467.90 531.90 L 470.60 535.50 L 472.90 539.40 L 474.90 543.50 L 476.50 547.80 L 477.60 552.20 L 478.30 556.90 L 478.60 561.70 L 478.60 630.30 L 478.30 635.20 L 477.60 639.90 L 476.50 644.30 L 474.90 648.60 L 472.90 652.70 L 470.60 656.60 L 467.90 660.20 L 464.90 663.50 L 461.50 666.50 L 457.90 669.20 L 454.10 671.50 L 450.00 673.50 L 445.70 675.10 L 441.20 676.30 L 436.60 677.00 L 431.70 677.20 L 400.50 677.20 L 395.60 677.00 L 391.00 676.30 L 386.50 675.10 L 382.20 673.50 L 378.10 671.50 L 374.20 669.20 L 370.70 666.50 L 367.30 663.50 L 364.30 660.20 L 361.60 656.60 L 359.30 652.70 L 357.30 648.60 L 355.70 644.30 L 354.60 639.90 L 353.90 635.20 L 353.60 630.30 L 353.60 561.70 L 353.90 556.90 L 354.60 552.20 L 355.70 547.80 L 357.30 543.50 L 359.30 539.40 L 361.60 535.50 L 364.30 531.90 L 367.30 528.60 L 370.70 525.50 L 374.20 522.90 L 378.10 520.50 L 382.20 518.50 L 386.50 517.00 L 391.00 515.80 L 395.60 515.10 L 400.50 514.90 Z" fill="#000000" fill-rule="evenodd" filter="url(#filter-18)" group-id="1,2,4,14,28,35,40" node-id="549" stroke="none" target-height="162.29999" target-width="125" target-x="353.6" target-y="514.9"></path></g><path d="M 417.20 592.30 L 420.80 592.70 L 424.20 593.50 L 427.40 594.70 L 430.50 596.40 L 433.20 598.40 L 435.70 600.70 L 437.80 603.30 L 439.60 606.20 L 441.10 609.30 L 442.10 612.60 L 442.70 616.10 L 442.80 619.80 L 442.40 623.40 L 441.60 626.80 L 440.40 630.00 L 438.70 633.00 L 436.70 635.80 L 434.40 638.30 L 431.70 640.40 L 428.90 642.20 L 425.70 643.60 L 422.40 644.70 L 419.00 645.20 L 415.30 645.40 L 411.70 645.00 L 408.30 644.20 L 405.10 642.90 L 402.00 641.30 L 399.30 639.30 L 396.80 636.90 L 394.70 634.30 L 392.90 631.40 L 391.40 628.30 L 390.40 625.00 L 389.80 621.60 L 389.70 617.90 L 390.10 614.30 L 390.90 610.90 L 392.20 607.60 L 393.80 604.60 L 395.80 601.90 L 398.10 599.40 L 400.80 597.20 L 403.60 595.40 L 406.80 594.00 L 410.10 593.00 L 413.50 592.40 L 417.20 592.30 Z" fill="url(#radialGradient-19)" fill-rule="evenodd" group-id="1,2,4,14,28,36" id="矩形" node-id="144" stroke="url(#linearGradient-20)" stroke-linecap="butt" stroke-width="3.125" target-height="53.100037" target-width="53.099976" target-x="389.7" target-y="592.3"></path></g></g><g node-id="650"><path d="M 288.00 295.50 L 813.00 295.50 L 818.20 295.80 L 823.20 296.50 L 827.90 297.80 L 832.50 299.40 L 836.90 301.60 L 841.00 304.10 L 844.80 306.90 L 848.40 310.20 L 851.60 313.70 L 854.50 317.50 L 857.00 321.60 L 859.10 326.00 L 860.80 330.60 L 862.00 335.40 L 862.80 340.30 L 863.00 345.50 L 863.00 545.50 L 862.80 550.70 L 862.00 555.70 L 860.80 560.40 L 859.10 565.00 L 857.00 569.40 L 854.50 573.50 L 851.60 577.30 L 848.40 580.90 L 844.80 584.10 L 841.00 587.00 L 836.90 589.40 L 832.50 591.60 L 827.90 593.30 L 823.20 594.50 L 818.20 595.20 L 813.00 595.50 L 288.00 595.50 L 282.90 595.20 L 277.90 594.50 L 273.10 593.30 L 268.60 591.60 L 264.20 589.40 L 260.10 587.00 L 256.20 584.10 L 252.70 580.90 L 249.40 577.30 L 246.60 573.50 L 244.10 569.40 L 242.00 565.00 L 240.30 560.40 L 239.10 555.70 L 238.30 550.70 L 238.00 545.50 L 238.00 345.50 L 238.30 340.30 L 239.10 335.40 L 240.30 330.60 L 242.00 326.00 L 244.10 321.60 L 246.60 317.50 L 249.40 313.70 L 252.70 310.20 L 256.20 306.90 L 260.10 304.10 L 264.20 301.60 L 268.60 299.40 L 273.10 297.80 L 277.90 296.50 L 282.90 295.80 L 288.00 295.50 Z" fill="url(#linearGradient-21)" fill-opacity="0.60410786" fill-rule="evenodd" filter="url(#filter-22)" group-id="1,2,4,15" node-id="561" stroke="none" target-height="300" target-width="625" target-x="238" target-y="295.5"></path></g><g node-id="651"><path d="M 273.60 492.70 L 281.10 819.70 L 281.00 822.10 L 280.40 824.30 L 279.40 826.30 L 278.10 828.20 L 276.50 829.70 L 274.50 831.00 L 272.00 832.10 L 269.50 832.80 L 267.00 833.00 L 264.40 832.80 L 261.60 832.10 L 254.40 829.50 L 243.70 824.90 L 228.60 817.90 L 236.40 604.50 L 240.80 497.50 L 242.90 453.70 L 243.90 441.40 L 244.20 440.00 L 244.70 440.20 L 246.40 442.30 L 250.40 448.90 L 258.70 464.00 L 273.60 492.70 Z" fill="url(#linearGradient-23)" fill-rule="evenodd" group-id="1,2,4,16" id="路径-20" node-id="146" stroke="none" target-height="393" target-width="52.5" target-x="228.6" target-y="440"></path></g><path d="M 281.30 789.30 L 281.10 822.20 L 280.50 824.30 L 278.30 828.00 L 274.90 830.80 L 272.40 832.00 L 269.80 832.70 L 267.20 833.00 L 264.40 832.80 L 261.60 832.10 L 254.40 829.50 L 243.70 824.90 L 228.60 817.90 L 281.30 789.30 Z" fill="url(#linearGradient-24)" fill-rule="evenodd" group-id="1,2,4,17" id="路径-20" node-id="147" stroke="none" target-height="43.700012" target-width="52.69998" target-x="228.6" target-y="789.3"></path></g><g node-id="640"><g node-id="653"><g node-id="664"><path d="M 650.00 440.00 L 656.20 439.70 L 662.20 439.00 L 668.10 437.80 L 673.70 436.20 L 679.20 434.10 L 684.50 431.60 L 689.50 428.80 L 694.30 425.50 L 698.80 421.90 L 703.00 418.00 L 706.90 413.80 L 710.50 409.30 L 713.80 404.50 L 716.60 399.50 L 719.10 394.20 L 721.20 388.70 L 722.80 383.10 L 724.00 377.20 L 724.70 371.20 L 725.00 365.00 L 725.00 251.50 L 724.70 245.30 L 724.00 239.30 L 722.80 233.50 L 721.20 227.80 L 719.10 222.30 L 716.60 217.00 L 713.80 212.00 L 710.50 207.20 L 706.90 202.70 L 703.00 198.50 L 698.80 194.60 L 694.30 191.00 L 689.50 187.70 L 684.50 184.90 L 679.20 182.40 L 673.70 180.30 L 668.10 178.70 L 662.20 177.50 L 656.20 176.80 L 650.00 176.50 L 450.00 176.50 L 443.80 176.80 L 437.80 177.50 L 431.90 178.70 L 426.30 180.30 L 420.80 182.40 L 415.50 184.90 L 410.50 187.70 L 405.70 191.00 L 401.20 194.60 L 397.00 198.50 L 393.10 202.70 L 389.50 207.20 L 386.20 212.00 L 383.40 217.00 L 380.90 222.30 L 378.80 227.80 L 377.20 233.50 L 376.00 239.30 L 375.30 245.30 L 375.00 251.50 L 375.00 365.00 L 375.30 371.20 L 376.00 377.20 L 377.20 383.10 L 378.80 388.70 L 380.90 394.20 L 383.40 399.50 L 386.20 404.50 L 389.50 409.30 L 393.10 413.80 L 397.00 418.00 L 401.20 421.90 L 405.70 425.50 L 410.50 428.80 L 415.50 431.60 L 420.80 434.10 L 426.30 436.20 L 431.90 437.80 L 437.80 439.00 L 443.80 439.70 L 450.00 440.00 L 650.00 440.00 Z M 650.00 390.00 L 450.00 390.00 L 446.60 389.80 L 443.30 389.10 L 440.30 388.00 L 437.40 386.60 L 434.70 384.80 L 432.30 382.70 L 430.20 380.30 L 428.40 377.60 L 427.00 374.70 L 425.90 371.70 L 425.20 368.40 L 425.00 365.00 L 425.00 251.50 L 425.20 248.10 L 425.90 244.80 L 427.00 241.80 L 428.40 238.90 L 430.20 236.20 L 432.30 233.80 L 434.70 231.70 L 437.40 229.90 L 440.30 228.50 L 443.30 227.40 L 446.60 226.80 L 450.00 226.50 L 650.00 226.50 L 653.40 226.80 L 656.70 227.40 L 659.70 228.50 L 662.60 229.90 L 665.30 231.70 L 667.70 233.80 L 669.80 236.20 L 671.60 238.90 L 673.00 241.80 L 674.10 244.80 L 674.80 248.10 L 675.00 251.50 L 675.00 365.00 L 674.80 368.40 L 674.10 371.70 L 673.00 374.70 L 671.60 377.60 L 669.80 380.30 L 667.70 382.70 L 665.30 384.80 L 662.60 386.60 L 659.70 388.00 L 656.70 389.10 L 653.40 389.80 L 650.00 390.00 Z" fill="url(#linearGradient-25)" fill-rule="evenodd" group-id="1,2,5,18,29" node-id="577" stroke="none" target-height="263.5" target-width="350" target-x="375" target-y="176.5"></path></g><path d="M 650.00 440.00 L 656.20 439.70 L 662.20 439.00 L 668.10 437.80 L 673.70 436.20 L 679.20 434.10 L 684.50 431.60 L 689.50 428.80 L 694.30 425.50 L 698.80 421.90 L 703.00 418.00 L 706.90 413.80 L 710.50 409.30 L 713.80 404.50 L 716.60 399.50 L 719.10 394.20 L 721.20 388.70 L 722.80 383.10 L 724.00 377.20 L 724.70 371.20 L 725.00 365.00 L 725.00 251.50 L 724.70 245.30 L 724.00 239.30 L 722.80 233.50 L 721.20 227.80 L 719.10 222.30 L 716.60 217.00 L 713.80 212.00 L 710.50 207.20 L 706.90 202.70 L 703.00 198.50 L 698.80 194.60 L 694.30 191.00 L 689.50 187.70 L 684.50 184.90 L 679.20 182.40 L 673.70 180.30 L 668.10 178.70 L 662.20 177.50 L 656.20 176.80 L 650.00 176.50 L 450.00 176.50 L 443.80 176.80 L 437.80 177.50 L 431.90 178.70 L 426.30 180.30 L 420.80 182.40 L 415.50 184.90 L 410.50 187.70 L 405.70 191.00 L 401.20 194.60 L 397.00 198.50 L 393.10 202.70 L 389.50 207.20 L 386.20 212.00 L 383.40 217.00 L 380.90 222.30 L 378.80 227.80 L 377.20 233.50 L 376.00 239.30 L 375.30 245.30 L 375.00 251.50 L 375.00 365.00 L 375.30 371.20 L 376.00 377.20 L 377.20 383.10 L 378.80 388.70 L 380.90 394.20 L 383.40 399.50 L 386.20 404.50 L 389.50 409.30 L 393.10 413.80 L 397.00 418.00 L 401.20 421.90 L 405.70 425.50 L 410.50 428.80 L 415.50 431.60 L 420.80 434.10 L 426.30 436.20 L 431.90 437.80 L 437.80 439.00 L 443.80 439.70 L 450.00 440.00 L 650.00 440.00 Z M 650.00 390.00 L 450.00 390.00 L 446.60 389.80 L 443.30 389.10 L 440.30 388.00 L 437.40 386.60 L 434.70 384.80 L 432.30 382.70 L 430.20 380.30 L 428.40 377.60 L 427.00 374.70 L 425.90 371.70 L 425.20 368.40 L 425.00 365.00 L 425.00 251.50 L 425.20 248.10 L 425.90 244.80 L 427.00 241.80 L 428.40 238.90 L 430.20 236.20 L 432.30 233.80 L 434.70 231.70 L 437.40 229.90 L 440.30 228.50 L 443.30 227.40 L 446.60 226.80 L 450.00 226.50 L 650.00 226.50 L 653.40 226.80 L 656.70 227.40 L 659.70 228.50 L 662.60 229.90 L 665.30 231.70 L 667.70 233.80 L 669.80 236.20 L 671.60 238.90 L 673.00 241.80 L 674.10 244.80 L 674.80 248.10 L 675.00 251.50 L 675.00 365.00 L 674.80 368.40 L 674.10 371.70 L 673.00 374.70 L 671.60 377.60 L 669.80 380.30 L 667.70 382.70 L 665.30 384.80 L 662.60 386.60 L 659.70 388.00 L 656.70 389.10 L 653.40 389.80 L 650.00 390.00 Z" fill="#000000" fill-rule="evenodd" filter="url(#filter-28)" group-id="1,2,5,18,30" node-id="582" stroke="none" target-height="263.5" target-width="350" target-x="375" target-y="176.5"></path></g><path d="M 674.30 190.00 L 465.70 190.00 L 459.50 190.20 L 453.50 191.00 L 447.70 192.20 L 442.00 193.80 L 436.50 195.90 L 431.20 198.40 L 426.20 201.20 L 421.40 204.40 L 416.90 208.00 L 412.70 211.90 L 408.80 216.20 L 405.20 220.70 L 402.00 225.50 L 399.10 230.50 L 396.60 235.70 L 394.50 241.30 L 392.90 246.90 L 391.70 252.70 L 391.00 258.70 L 390.70 265.00 L 390.70 300.30" fill="none" filter="url(#filter-30)" group-id="1,2,5,19" node-id="588" stroke="url(#linearGradient-29)" stroke-linecap="butt" stroke-width="25" target-height="110.29999" target-width="283.59998" target-x="390.7" target-y="190"></path></g><g node-id="641"><g node-id="655"><g node-id="666"><path d="M 287.50 265.00 L 812.50 265.00 L 817.70 265.30 L 822.60 266.00 L 827.40 267.20 L 832.00 268.90 L 836.40 271.10 L 840.50 273.50 L 844.30 276.40 L 847.90 279.60 L 851.10 283.20 L 854.00 287.00 L 856.40 291.10 L 858.60 295.50 L 860.30 300.10 L 861.50 304.90 L 862.20 309.80 L 862.50 315.00 L 862.50 515.00 L 862.20 520.20 L 861.50 525.10 L 860.30 529.90 L 858.60 534.50 L 856.40 538.90 L 854.00 543.00 L 851.10 546.80 L 847.90 550.40 L 844.30 553.60 L 840.50 556.50 L 836.40 558.90 L 832.00 561.10 L 827.40 562.80 L 822.60 564.00 L 817.70 564.70 L 812.50 565.00 L 287.50 565.00 L 282.30 564.70 L 277.40 564.00 L 272.60 562.80 L 268.00 561.10 L 263.60 558.90 L 259.50 556.50 L 255.70 553.60 L 252.10 550.40 L 248.90 546.80 L 246.00 543.00 L 243.60 538.90 L 241.40 534.50 L 239.70 529.90 L 238.50 525.10 L 237.80 520.20 L 237.50 515.00 L 237.50 315.00 L 237.80 309.80 L 238.50 304.90 L 239.70 300.10 L 241.40 295.50 L 243.60 291.10 L 246.00 287.00 L 248.90 283.20 L 252.10 279.60 L 255.70 276.40 L 259.50 273.50 L 263.60 271.10 L 268.00 268.90 L 272.60 267.20 L 277.40 266.00 L 282.30 265.30 L 287.50 265.00 Z" fill="url(#linearGradient-31)" fill-rule="evenodd" group-id="1,2,6,20,31" node-id="596" stroke="none" target-height="300" target-width="625" target-x="237.5" target-y="265"></path></g><path d="M 287.50 265.00 L 812.50 265.00 L 817.70 265.30 L 822.60 266.00 L 827.40 267.20 L 832.00 268.90 L 836.40 271.10 L 840.50 273.50 L 844.30 276.40 L 847.90 279.60 L 851.10 283.20 L 854.00 287.00 L 856.40 291.10 L 858.60 295.50 L 860.30 300.10 L 861.50 304.90 L 862.20 309.80 L 862.50 315.00 L 862.50 515.00 L 862.20 520.20 L 861.50 525.10 L 860.30 529.90 L 858.60 534.50 L 856.40 538.90 L 854.00 543.00 L 851.10 546.80 L 847.90 550.40 L 844.30 553.60 L 840.50 556.50 L 836.40 558.90 L 832.00 561.10 L 827.40 562.80 L 822.60 564.00 L 817.70 564.70 L 812.50 565.00 L 287.50 565.00 L 282.30 564.70 L 277.40 564.00 L 272.60 562.80 L 268.00 561.10 L 263.60 558.90 L 259.50 556.50 L 255.70 553.60 L 252.10 550.40 L 248.90 546.80 L 246.00 543.00 L 243.60 538.90 L 241.40 534.50 L 239.70 529.90 L 238.50 525.10 L 237.80 520.20 L 237.50 515.00 L 237.50 315.00 L 237.80 309.80 L 238.50 304.90 L 239.70 300.10 L 241.40 295.50 L 243.60 291.10 L 246.00 287.00 L 248.90 283.20 L 252.10 279.60 L 255.70 276.40 L 259.50 273.50 L 263.60 271.10 L 268.00 268.90 L 272.60 267.20 L 277.40 266.00 L 282.30 265.30 L 287.50 265.00 Z" fill="#000000" fill-rule="evenodd" filter="url(#filter-34)" group-id="1,2,6,20,32" node-id="601" stroke="none" target-height="300" target-width="625" target-x="237.5" target-y="265"></path></g><g node-id="656"><path d="M 266.80 493.60 L 266.80 318.60 L 267.10 315.10 L 267.70 311.90 L 268.80 308.90 L 270.20 306.00 L 272.00 303.30 L 274.10 300.90 L 276.50 298.80 L 279.20 297.00 L 282.10 295.50 L 285.20 294.50 L 288.40 293.80 L 291.80 293.60 L 829.70 293.60" fill="none" filter="url(#filter-36)" group-id="1,2,6,21" node-id="607" stroke="url(#linearGradient-35)" stroke-linecap="round" stroke-width="25" target-height="200" target-width="562.9" target-x="266.8" target-y="293.6"></path></g><path d="M 829.70 281.10 L 834.10 281.90 L 836.00 282.80 L 839.20 285.50 L 841.40 289.20 L 842.20 293.60 L 841.40 298.00 L 839.20 301.60 L 836.00 304.40 L 834.10 305.30 L 829.70 306.10 L 291.80 306.10 L 287.40 306.90 L 283.80 309.00 L 281.00 312.30 L 279.50 316.30 L 279.30 318.60 L 279.30 493.60 L 279.10 495.90 L 277.60 499.90 L 274.90 503.10 L 271.20 505.30 L 266.80 506.10 L 262.40 505.30 L 258.80 503.10 L 256.00 499.90 L 255.10 498.00 L 254.30 493.60 L 254.30 318.60 L 254.50 314.70 L 256.00 307.40 L 257.30 304.00 L 259.50 299.60 L 262.10 295.70 L 265.30 292.10 L 268.90 288.90 L 272.90 286.20 L 277.20 284.00 L 284.20 281.90 L 291.80 281.10 L 829.70 281.10 Z" fill="url(#linearGradient-37)" fill-rule="nonzero" filter="url(#filter-38)" group-id="1,2,6,22" node-id="612" stroke="none" target-height="225" target-width="587.9" target-x="254.3" target-y="281.1"></path></g></g><g node-id="638"><g node-id="642"><g node-id="658"><path d="M 678.50 538.50 L 584.40 637.50 L 581.60 640.70 L 577.20 647.60 L 575.50 651.30 L 573.30 659.00 L 572.80 662.90 L 572.80 670.80 L 574.20 678.60 L 575.50 682.40 L 579.20 689.60 L 584.30 696.30 L 728.40 848.10 L 731.60 851.10 L 735.00 853.70 L 738.50 855.90 L 742.20 857.80 L 746.10 859.30 L 754.10 861.00 L 762.30 861.20 L 770.30 859.90 L 774.30 858.60 L 778.10 857.00 L 781.80 855.00 L 785.30 852.50 L 788.70 849.60 L 910.70 720.10 L 740.50 538.70 L 737.30 535.70 L 734.00 533.00 L 730.50 530.80 L 726.70 528.90 L 722.80 527.40 L 714.90 525.60 L 706.70 525.30 L 698.60 526.60 L 694.70 527.90 L 690.80 529.50 L 687.20 531.50 L 683.60 533.90 L 678.50 538.50 Z" fill="#000000" fill-rule="evenodd" filter="url(#filter-41)" group-id="1,3,7,23" node-id="621" stroke="none" target-height="335.90002" target-width="337.90002" target-x="572.8" target-y="525.3"></path></g><g node-id="659"><path d="M 678.50 538.50 L 584.40 637.50 L 581.60 640.70 L 577.20 647.60 L 575.50 651.30 L 573.30 659.00 L 572.80 662.90 L 572.80 670.80 L 574.20 678.60 L 575.50 682.40 L 579.20 689.60 L 584.30 696.30 L 728.40 848.10 L 731.60 851.10 L 735.00 853.70 L 738.50 855.90 L 742.20 857.80 L 746.10 859.30 L 754.10 861.00 L 762.30 861.20 L 770.30 859.90 L 774.30 858.60 L 778.10 857.00 L 781.80 855.00 L 785.30 852.50 L 788.70 849.60 L 910.70 720.10 L 740.50 538.70 L 737.30 535.70 L 734.00 533.00 L 730.50 530.80 L 726.70 528.90 L 722.80 527.40 L 714.90 525.60 L 706.70 525.30 L 698.60 526.60 L 694.70 527.90 L 690.80 529.50 L 687.20 531.50 L 683.60 533.90 L 678.50 538.50 Z" fill="url(#linearGradient-39)" fill-rule="evenodd" group-id="1,3,7,24" node-id="626" stroke="none" target-height="335.90002" target-width="337.90002" target-x="572.8" target-y="525.3"></path></g><g node-id="660"><path d="M 678.50 538.50 L 584.40 637.50 L 581.60 640.70 L 577.20 647.60 L 575.50 651.30 L 573.30 659.00 L 572.80 662.90 L 572.80 670.80 L 574.20 678.60 L 575.50 682.40 L 579.20 689.60 L 584.30 696.30 L 728.40 848.10 L 731.60 851.10 L 735.00 853.70 L 738.50 855.90 L 742.20 857.80 L 746.10 859.30 L 754.10 861.00 L 762.30 861.20 L 770.30 859.90 L 774.30 858.60 L 778.10 857.00 L 781.80 855.00 L 785.30 852.50 L 788.70 849.60 L 910.70 720.10 L 740.50 538.70 L 737.30 535.70 L 734.00 533.00 L 730.50 530.80 L 726.70 528.90 L 722.80 527.40 L 714.90 525.60 L 706.70 525.30 L 698.60 526.60 L 694.70 527.90 L 690.80 529.50 L 687.20 531.50 L 683.60 533.90 L 678.50 538.50 Z" fill="#000000" fill-rule="evenodd" filter="url(#filter-42)" group-id="1,3,7,25" node-id="631" stroke="none" target-height="335.90002" target-width="337.90002" target-x="572.8" target-y="525.3"></path></g><path d="M 682.80 539.50 L 689.10 534.70 L 696.00 531.40 L 700.80 530.00 L 705.70 529.20 L 710.70 529.00 L 715.60 529.50 L 720.50 530.60 L 725.20 532.30 L 731.80 536.10 L 734.90 538.50 L 737.80 541.30 L 905.50 720.10 L 786.10 846.90 L 779.80 851.80 L 773.00 855.10 L 768.10 856.60 L 763.30 857.40 L 758.30 857.60 L 753.30 857.10 L 748.50 856.10 L 743.70 854.40 L 737.10 850.60 L 734.00 848.30 L 731.10 845.50 L 587.00 693.70 L 582.30 687.60 L 579.00 681.10 L 577.50 676.40 L 576.60 671.70 L 576.40 666.90 L 576.70 662.10 L 577.50 657.30 L 579.00 652.70 L 582.40 646.10 L 584.50 643.00 L 682.80 539.50 Z" fill="none" group-id="1,3,7" node-id="634" stroke="#ffffff" stroke-linecap="butt" stroke-width="7.5" target-height="328.59998" target-width="329.09998" target-x="576.4" target-y="529"></path></g><g node-id="643"><path d="M 839.00 716.60 L 842.80 713.90 L 846.90 712.90 L 851.20 713.20 L 855.00 715.00 L 883.80 743.10 L 865.90 760.80 L 837.60 732.50 L 835.80 728.60 L 835.40 724.40 L 836.40 720.30 L 837.50 718.40 L 839.00 716.60 Z" fill="#fd5f29" fill-rule="evenodd" group-id="1,3,8" id="矩形备份-14" node-id="169" stroke="#ffffff" stroke-linecap="butt" stroke-width="7.529412" target-height="47.899963" target-width="48.399963" target-x="835.4" target-y="712.9"></path></g><g node-id="644"><path d="M 781.20 741.80 L 783.10 740.20 L 785.00 739.10 L 789.10 738.00 L 793.30 738.30 L 797.20 740.00 L 799.00 741.40 L 844.60 784.90 L 827.00 802.90 L 781.60 759.50 L 780.10 757.80 L 778.20 753.90 L 777.70 749.70 L 778.70 745.60 L 779.70 743.70 L 781.20 741.80 Z" fill="#fd5f29" fill-rule="evenodd" group-id="1,3,9" id="矩形备份-15" node-id="170" stroke="#ffffff" stroke-linecap="butt" stroke-width="7.529412" target-height="64.900024" target-width="66.89996" target-x="777.7" target-y="738"></path></g><g node-id="645"><path d="M 742.50 782.60 L 744.30 781.00 L 746.20 779.90 L 750.30 778.80 L 754.50 779.10 L 758.40 780.80 L 760.20 782.20 L 805.80 825.70 L 788.30 843.70 L 742.80 800.30 L 741.30 798.60 L 739.40 794.70 L 738.90 790.60 L 739.90 786.40 L 740.90 784.50 L 742.50 782.60 Z" fill="#fd5f29" fill-rule="evenodd" group-id="1,3,10" id="矩形备份-16" node-id="171" stroke="#ffffff" stroke-linecap="butt" stroke-width="7.529412" target-height="64.900024" target-width="66.89996" target-x="738.9" target-y="778.8"></path></g><path d="M 739.40 610.00 L 791.10 555.20 L 794.30 552.10 L 797.60 549.50 L 801.20 547.20 L 804.90 545.40 L 808.80 543.90 L 816.80 542.10 L 820.80 541.80 L 825.00 541.90 L 833.00 543.20 L 837.00 544.50 L 840.80 546.10 L 844.50 548.10 L 848.00 550.50 L 853.20 555.20 L 929.00 635.90 L 934.10 642.50 L 936.00 646.00 L 938.90 653.40 L 940.40 661.10 L 940.40 669.00 L 938.90 676.70 L 936.10 684.20 L 931.80 691.00 L 929.00 694.30 L 906.00 718.90 L 838.90 648.10 L 810.30 677.80 L 807.00 680.80 L 803.60 683.40 L 800.10 685.60 L 796.40 687.40 L 792.50 688.80 L 784.50 690.50 L 780.40 690.80 L 776.30 690.70 L 768.30 689.30 L 760.50 686.30 L 756.90 684.20 L 753.40 681.80 L 750.10 678.90 L 737.80 666.80 L 735.20 663.50 L 733.10 659.90 L 729.80 652.30 L 728.00 644.40 L 727.80 640.30 L 727.80 636.20 L 729.20 628.20 L 730.40 624.30 L 732.10 620.50 L 734.10 616.90 L 736.50 613.40 L 739.40 610.00 Z" fill="#fd5f29" fill-rule="evenodd" group-id="1,3" id="路径-13" node-id="172" stroke="#ffffff" stroke-linecap="butt" stroke-width="7.529412" target-height="177.10004" target-width="212.60004" target-x="727.8" target-y="541.8"></path></g></g></svg>