<svg width="1152" height="480"><g><path d="M805.543,143.866L809.029,144.464L809.862,144.363L813.135,142.086L814.495,141.769L816.981,141.865L819.353,141.414L819.993,140.908L821.053,139.358L821.613,137.514L822.066,134.04L822.479,133.488L823.533,133.084L828.845,132.362L838.943,132.292L840.862,132.164L842.109,131.34L842.668,129.583L842.782,125.24L843.202,123.184L844.555,120.539L846.741,117.843L848.441,116.293L849.907,115.746L851.64,115.613L853.18,116.371L855.446,117.103L859.139,117.292L864.878,117.204L867.604,116.804L868.31,115.76L868.637,114.647L869.437,114.766L869.863,112.314L873.269,112.655L873.763,112.305L873.936,109.458L874.729,109.499L875.388,110.092L875.016,110.567L876.482,111.928L877.095,111.362L878.241,112.517L877.635,113.124L878.022,113.865L878.915,114.444L879.061,115.268L881.501,115.585L881.681,116.882L881.621,118.056L881.314,119.408L881.367,122.729L881.534,122.706L881.701,124.85L882.227,125.517L885.04,125.438L885.48,127.609L886.52,127.554L887.519,128.681L887.186,129.211L887.673,130.31L887.327,130.83L888.566,131.041L888.659,132.481L889.006,133.263L889.446,138.254L889.246,138.263L888.639,140.48L887.839,140.255L887.353,142.072L886.966,142.04L886.92,141.207L886.26,141.175L886.26,142.109L885.733,142.123L885.207,143.977L885.36,143.99L884.56,145.844L884.074,145.688L883.554,147.15L883.374,148.618L884.387,148.995L883.734,150.274L883.72,151.461L883.427,151.47L882.574,155.003L882.567,156.351L882.841,156.567L882.574,158.352L882.894,158.342L883.2,157.331L884.154,157.322L884.014,158.605L882.947,158.679L882.88,158.955L886.7,174.088L889.339,183.036L889.646,185.045L889.533,187.668L888.093,193.377L886.32,196.528L883.367,199.679L882.121,201.919L881.894,205.088L880.788,206.165L878.495,206.914L876.309,207.922L875.928,209.38L880.308,230.274L880.681,236.295L881.287,237.523L883.634,237.339L885.293,238.43L886.426,240.895L888.166,250.468L888.826,252.965L889.359,256.048L890.306,258.578L891.266,262.221L892.665,265.091L893.498,265.91L895.498,266.453L900.87,267.492L901.97,268.583L902.196,269.723L901.777,273.463L901.397,274.535L901.723,275.275L901.63,277.99L902.137,279.328L902.47,282.429L902.283,283.188L901.543,283.901L899.724,284.577L899.864,286.302L899.59,288.496L900.09,290.736L901.124,292.77L901.577,294.131L901.463,296.252L897.504,296.459L897.057,297.218L896.358,300.098L895.931,300.682L896.524,304.559L896.531,306.722L896.824,308.157L896.977,310.31L896.991,312.467L897.284,314.624L897.304,317.504L897.591,318.222L897.457,320.379L897.604,321.097L897.611,323.254L897.764,323.972L897.771,326.134L898.218,329L898.377,332.597L898.384,334.754L898.678,336.189L898.831,338.342L898.844,340.499L898.984,341.213L899.857,342.731L902.29,346.121L904.636,346.02L904.689,347.022L902.043,352.046L901.983,352.787L902.736,354.12L904.089,355.809L904.383,356.406L904.223,357.295L903.556,358.118L903.763,360.165L902.43,360.542L903.097,362.23L903.11,363.261L902.41,364.369L896.631,364.866L896.684,369.733L896.824,371.476L901.67,371.141L902.256,373.294L902.923,374.467L903.936,374.255L904.229,374.793L904.523,377.176L906.736,377.392L908.362,377.369L908.502,379.071L909.035,381.086L908.229,382.871L908.296,384.835L909.262,386.661L908.922,388.773L908.009,390.364L906.835,391.413L905.056,392.6L904.263,393.828L902.903,398.262L902.863,404.45L902.903,406.492L902.297,408.406L901.277,410.227L900.177,410.908L896.431,412.256L894.165,413.351L892.385,415.311L890.872,416.313L889.319,416.998L887.966,417.316L885.773,417.045L884.3,416.276L881.387,414.551L877.535,413.415L869.377,411.552L867.644,410.554L866.89,409.781L865.571,404.21L864.364,403.525L862.891,403.709L861.458,404.289L858.505,402.941L857.772,402.876L853.413,402.992L852.167,402.6L850.014,400.369L849.094,399.541L849.307,398.456L849.607,398.437L849.654,396.082L849.341,396.096L849.374,394.371L848.747,394.739L848.747,395.769L848.281,395.778L848.027,396.367L847.928,398.373L847.488,397.931L847.061,398.304L846.955,399.914L846.541,399.73L844.948,397.973L844.275,398.065L843.142,399.518L842.429,400.015L841.596,399.785L840.696,398.424L838.043,397.122L836.85,397.071L835.497,398.226L833.104,398.8L832.138,398.777L831.838,397.991L832.031,395.751L831.944,394.937L831.504,394.251L830.844,394.081L830.298,395.103L830.284,396.285L829.638,397.577L828.838,397.554L827.672,396.376L827.172,396.418L825.939,397.407L825.126,397.632L823.399,397.637L822.6,398.465L821.6,398.014L820.44,396.947L819.854,396.082L819.28,394.564L819.113,393.658L819.187,392.407L820.173,389.941L821.633,388.289L821.619,388.027L819.113,383.441L816.554,376.307L814.368,371.582L813.501,370.216L812.768,369.554L810.942,368.528L809.882,367.438L808.642,365.657L807.223,364.158L804.25,361.747L800.997,359.641L799.077,358.812L798.031,357.667L797.538,355.634L798.204,353.416L798.757,352.377L800.444,350.132L801.444,349.226L803.477,348.159L804.816,345.546L805.07,343.83L804.47,340.357L804.003,339.244L803.977,336.41L804.263,335.007L804.25,333.503L803.863,331.829L802.524,329.455L803.243,328.011L803.643,326.024L803.757,324.634L803.517,324.091L802.397,323.006L801.404,320.467L800.224,318.535L798.524,318.71L797.724,316.634L793.639,317.09L793.639,318.061L792.032,318.079L792.546,321.796L791.213,321.451L791.079,319.887L788.7,319.763L788.906,318.668L791.119,318.893L791.346,315.705L793.912,314.933L793.659,314.196L792.072,312.361L790.999,312.058L787.073,312.223L784.121,312.771L783.307,312.416L783.067,311.708L782.261,310.48L781.794,309.036L781.841,307.301L781.328,305.507L780.202,303.331L778.929,301.878L777.689,300.921L776.782,300.783L774.169,301.593L772.31,302.94L771.423,303.106L770.19,302.729L768.604,301.859L767.498,300.778L767.077,300.083L766.851,298.975L767.204,298.17L767.011,295.217L766.404,293.51L767.724,293.303L768.384,292.802L767.424,291.044L767.124,289.605L765.944,286.021L765.578,284.246L763.712,282.751L762.372,281.918L759.712,280.824L757.039,279.59L754.393,279.089L752.78,278.992L751.028,279.052L748.675,278.831L745.042,279.682L741.682,279.94L736.55,282.286L733.911,282.121L729.812,282.093L725.126,282.502L721.294,283.938L716.741,285.957L711.602,287.526L706.376,290.258L697.572,296.04L695.766,297.875L695.239,298.966L693.526,303.75L692.719,305.286L692.253,305.705L692.246,305.047L690.393,305.098L690.14,302.71L687.334,302.871L687.081,303.506L684.754,303.589L685.021,304.771L684.588,304.928L683.341,305.388L684.374,307.076L680.522,307.38L677.709,306.823L676.516,303.253L673.17,303.888L670.131,303.695L668.277,305.558L667.571,305.774L667.651,304.702L665.945,304.923L665.851,303.985L662.752,303.529L663.392,307.632L662.539,308L662.625,308.663L661.519,309.15L663.339,313.755L662.352,314.265L662.525,315.25L663.839,314.845L664.465,316.828L663.545,316.947L663.325,319.496L665.431,319.206L668.178,325.927L668.844,328.411L662.919,329.929L662.679,337.51L663.585,337.293L663.739,338.49L663.632,340.651L663.659,344.437L663.225,346.843L662.632,348.062L661.192,349.691L659.206,351.567L658.4,351.83L655.96,351.954L653.268,351.627L645.156,349.999L643.983,340.776L644.596,340.688L644.596,339.226L642.876,339.106L642.669,339.897L641.363,339.861L641.757,340.509L640.63,343.089L640.337,342.547L638.23,342.597L638.177,343.241L637.437,343.618L637.517,343.264L635.045,343.117L634.791,344.345L635.084,344.488L634.991,346.162L634.764,346.682L633.698,345.776L632.685,346.544L631.858,346.503L630.758,344.925L629.939,344.828L629.159,346.544L628.593,346.678L625.18,345.422L622.08,346.705L619.461,344.175L618.801,344.005L616.235,344.474L614.309,344.557L612.829,344.989L612.756,345.91L613.782,346.158L613.836,347.63L615.162,347.846L615.288,348.817L617.175,348.807L617.268,350.399L615.208,350.565L615.402,351.867L611.469,352.165L611.383,354.194L612.776,354.134L612.816,355.45L610.263,355.827L610.07,354.663L602.771,355.146L602.651,354.024L601.325,354.051L599.978,354.442L598.678,354.58L597.332,354.438L597.085,355.377L598.252,355.234L598.419,356.406L597.465,356.512L597.392,357.405L595.852,357.524L596.012,357.994L595.672,358.698L595.766,359.774L596.999,359.581L597.132,360.593L596.559,361.264L595.653,361.333L595.612,362.115L594.446,362.134L593.553,361.724L593.573,362.557L591.627,362.359L591.447,361.356L591.154,361.32L591.04,366.163L589.987,367.336L590.567,367.64L592.113,367.925L593.006,368.487L593.76,369.632L593.246,372.447L593.286,373.602L593.639,374.632L594.599,375.617L602.965,379.251L609.543,380.534L610.249,381.987L610.569,393.396L606.157,403.783L606.017,405.926L606.224,411.474L606.57,412.905L606.117,416.534L604.104,416.239L604.057,419.703L600.711,419.543L600.838,422.141L600.072,422.266L599.819,423.898L598.205,424L598.465,426.755L597.619,427.395L597.005,428.614L596.346,428.729L596.506,430.472L596.992,430.49L596.872,432.078L597.599,432.109L597.459,433.881L597.832,433.913L597.785,435.353L599.538,435.293L600.852,435.054L601.278,437.128L604.797,436.705L604.877,437.294L605.923,437.275L605.337,438.007L607.83,438.448L607.717,440.293L609.45,440.408L609.69,441.434L609.536,442.243L611.069,441.811L611.749,446.19L611.183,446.287L611.25,447.975L609.503,447.911L609.389,450.901L608.57,450.882L608.257,451.605L606.21,451.402L606.237,452.492L604.59,452.189L605.604,453.85L602.891,453.362L600.818,453.684L599.872,454.88L600.052,455.869L600.765,457.433L600.765,458.307L600.245,460.57L598.099,462.636L595.333,464.591L592.9,465.419L591.7,465.303L590.834,464.825L589.834,461.614L589.294,460.276L586.808,455.308L584.961,455.409L584.268,455.957L583.568,457.046L582.035,461.38L581.682,466.076L581.395,466.73L580.736,467.309L579.136,467.636L573.99,466.353L572.824,466.348L569.778,465.975L568.545,465.575L564.959,463.708L562.746,462.645L561.873,462.539L558.347,463.151L556.494,463.694L554.461,463.91L551.555,464.485L549.015,464.664L548.256,463.565L547.789,461.96L547.176,460.469L546.709,460.027L545.656,459.88L544.923,460.354L544.87,461.54L545.223,464.895L544.943,466.532L543.576,468.303L541.637,469.214L540.664,469.131L539.651,468.39L538.977,467.507L537.618,466.573L535.838,465.869L534.932,465.28L534.065,465.023L531.745,464.77L524.207,470L523.394,463.271L527.666,460.027L529.746,456.214L525.387,455.851L517.429,455.032L514.942,452.382L515.536,450.344L516.275,448.453L518.628,444.825L517.775,442.046L516.029,441.153L514.436,440.997L512.703,438.941L511.423,433.678L510.877,428.857L509.717,427.827L508.403,427.961L506.99,429.133L505.518,429.92L503.818,430.408L501.425,430.615L499.526,430.44L498.306,429.902L496.926,428.301L495.633,425.665L494.666,425.325L493.74,426.083L491.707,426.944L487.348,427.634L485.448,428.637L481.669,429.916L479.789,430.192L477.896,430.32L476.597,429.575L474.277,429.41L471.511,430.697L466.566,432.698L459.587,434.534L456.508,435.164L455.315,435.624L454.155,435.688L451.989,436.411L450.862,436.48L448.676,437.156L446.196,437.041L445.983,436.125L445.703,427.947L444.697,424.69L444.117,423.535L443.464,422.914L441.477,421.626L439.191,420.775L437.638,420.412L436.079,420.582L434.445,421.493L433.899,421.999L432.852,422.436L429.373,421.474L428.5,420.968L426.98,419.432L425.894,418.512L424.408,417.817L422.701,417.307L420.881,416.386L419.109,414.74L417.369,414.234L416.242,414.197L414.643,413.571L413.556,412.656L411.197,411.382L410.47,410.765L408.071,409.777L405.198,408.935L404.405,408.171L404.545,407.513L406.218,406.092L407.891,403.792L409.93,402.26L412.183,402.697L413.13,402.518L414.876,401.055L415.643,399.707L415.456,399.233L414.656,398.865L412.803,398.76L411.79,397.186L411.25,394.997L410.704,393.938L409.797,391.565L409.111,388.428L409.477,385.139L409.511,383.28L409.95,380.911L410.317,380.139L411.63,376.127L411.85,374.011L411.523,371.964L411.05,370.722L410.257,369.627L409.45,368.859L407.804,367.856L406.771,364.871L404.065,360.883L402.005,358.352L399.513,353.453L398.366,347.312L400.879,340.596L403.965,335.922L407.351,331.106L409.411,326.875L410.897,321.617L411.797,316.791L416.929,311.833L421.028,309.951L424.84,306.896L425.88,301.344L426.207,295.346L425.947,288.174L426.107,284.812L426.28,278.956L425.754,278.376L424.387,276.081L422.801,273.67L420.341,268.978L419.782,262.096L417.922,253.89L416.909,250.661L414.87,247.579L411.957,245.228L406.404,244.042L403.492,244.658L402.532,245.187L399.826,245.003L399.333,244.409L395.147,243.122L392.254,243.324L390.608,245.568L390.488,248.821L390.054,252.096L389.268,252.864L388.388,253.37L387.288,253.697L385.242,253.614L384.475,253.315L383.649,251.815L383.149,249.801L382.356,247.933L380.59,244.52L379.097,242.201L377.317,240.724L376.797,238.701L377.157,235.614L380.097,232.394L383.122,230.236L380.896,226.75L380.396,226.248L378.65,225.324L375.177,224.762L373.904,223.916L372.452,222.37L370.339,221.303L368.952,220.158L368.339,219.284L366.399,217.867L364.4,217.398L361.12,216.436L360.141,215.659L357.255,215.171L356.381,214.435L355.841,213.299L355.681,209.155L355.508,207.434L355.001,206.661L352.915,207.167L350.909,207.416L349.409,207.775L347.33,207.655L346.71,207.029L345.917,205.263L343.617,198.841L342.891,197.811L340.811,197.581L337.125,198.805L334.592,200.994L334.446,201.279L335.472,205.433L335.013,208.037L334.233,209.237L331.78,211.91L327.587,211.524L325.041,205.194L318.843,201.965L305.565,204.794L301.479,205.949L296.074,206.215L290.668,204.729L289.515,204.007L287.675,202.42L286.922,201.537L286.123,199.734L285.149,196.725L284.796,196.137L284.869,195.263L283.743,194.738L281.877,194.729L280.323,192.41L279.524,191.67L278.071,191.334L276.464,191.325L276.284,190.773L276.471,188.694L276.331,187.111L275.904,186.08L274.264,184.535L274.858,183.036L275.438,182.157L276.544,179.742L276.004,177.465L273.718,175.105L270.705,171.572L269.792,170.358L267.84,166.14L266.546,165.532L266.373,165.178L261.814,157.575L260.941,153.324L261.241,150.532L262.12,148.19L263.447,143.935L262.28,139.238L257.155,135.563L252.316,133.944L247.184,132.771L243.964,130.568L242.738,127.559L242.945,120.006L243.604,116.202L244.438,114.771L244.411,112.498L245.257,109.706L247.104,106.224L247.63,103.873L248.21,102.553L249.797,100.828L250.936,100.133L252.176,100.722L255.615,101.872L257.182,102.203L259.008,102.838L260.947,102.916L262.194,102.59L265.187,102.052L268.192,100.672L269.586,99.793L270.939,99.319L272.879,99.039L277.158,97.148L279.204,96.463L281.143,96.141L282.783,96.071L283.729,97.107L284.016,98.068L285.396,98.703L286.382,98.776L287.369,99.522L287.802,100.184L288.862,100.005L290.648,99.246L292.741,97.493L293.434,96.693L294.354,94.195L294.874,93.468L295.567,93.182L298.047,92.608L299.513,91.701L300.1,90.381L299.846,89.241L299.346,88.136L299.853,87.884L300.619,88.031L302.192,87.525L303.699,86.439L304.905,84.903L305.052,83.909L304.698,82.663L304.625,81.411L305.912,80.284L306.205,79.695L306.318,77.75L307.205,76.508L307.971,75.74L308.784,74.424L309.158,73.173L309.851,71.82L311.317,70.767L312.444,71.066L316.17,71.498L318.649,70.923L319.389,70.265L320.489,68.913L322.402,65.914L323.248,64.409L323.981,63.609L325.594,62.556L325.608,61.525L325.361,58.328L325.474,57.666L326.207,56.346L329.654,54.455L330.827,54.207L332.04,53.59L334.559,53.567L336.132,53.866L337.625,54.391L342.264,54.253L343.584,54.791L349.19,54.377L350.729,53.392L353.635,51.166L353.535,49.878L353.828,48.48L353.695,46.828L353.775,45.614L354.582,45.356L356.334,45.733L358.541,44.68L359.314,44.68L363.007,45.581L365.826,45.922L367.152,45.333L368.652,45.19L370.918,45.83L372.311,45.683L373.931,45.067L374.777,44.225L374.678,43.268L373.405,41.17L372.971,40.172L372.791,38.994L372.878,37.559L373.405,34.477L373.044,33.152L373.124,32.269L373.611,31.243L376.084,27.867L376.757,26.473L377.017,25.116L376.844,23.939L376.37,22.977L375.091,21.426L374.658,20.143L375.004,18.156L375.557,17.167L376.297,16.468L378.25,15.594L378.837,14.821L378.997,12.576L379.59,11.256L380.73,11.04L382.049,11.118L384.656,11.528L386.048,11.169L387.528,10.069L388.302,10L390.821,10.676L392.027,11.412L392.654,12.484L393.154,13.777L393.474,15.203L394.127,16.343L394.793,16.758L396.107,16.578L397.533,16.919L398.446,17.581L399.399,18.685L402.579,20.212L403.492,20.912L403.405,22.236L402.325,24.366L401.619,26.459L401.685,27.412L405.598,29.196L407.284,29.421L408.784,29.325L409.671,28.778L410.297,27.821L410.917,27.935L411.39,28.566L413.763,29.863L415.149,30.056L416.109,29.988L420.028,28.874L422.561,28.884L424.607,29.16L426.28,29.868L427.047,30.539L426.12,32.255L425.96,34.063L425.034,36.262L423.587,39.187L423.581,40.034L424.094,40.407L424.307,41.147L423.967,41.874L423.128,42.49L422.755,43.189L423.228,43.714L424.794,44.266L426.034,45.669L426.014,46.506L426.687,46.971L428.747,46.92L431.393,47.785L434.565,46.363L435.098,46.363L435.785,47.035L436.878,47.371L439.491,49.161L441.557,50.798L443.523,51.953L443.77,53.609L444.424,54.128L445.15,54.17L446.07,53.517L446.983,53.273L447.636,53.572L448.862,55.453L450.642,56.539L452.869,56.378L453.855,56.824L457.007,58.848L457.921,58.747L458.44,57.974L459.434,55.637L459.773,54.538L461.58,52.173L463.079,51.12L465.339,50.996L467.738,51.944L469.951,53.434L471.478,53.852L472.678,53.797L473.771,53.443L476.41,51.557L477.91,51.208L478.523,51.732L479.103,52.914L481.769,55.665L482.169,56.658L482.162,57.51L481.049,59.552L481.083,60.288L482.022,61.175L483.249,62.666L487.834,67.128L496.78,70.458L500.492,71.231L502.132,71.245L502.971,70.923L504.444,69.764L505.257,68.49L506.504,67.399L507.491,66.857L510.963,65.937L514.363,65.863L515.929,66.134L517.222,66.751L518.555,66.705L521.174,67.837L525.573,70.077L527.767,70.316L529.852,70.15L531.965,71.268L533.299,72.142L533.565,72.529L534.592,72.979L535.858,74.419L536.831,76.227L538.258,76.457L538.484,78.766L539.004,79.355L539.118,80.661L540.697,80.739L541.017,81.329L541.03,82.377L541.43,81.959L542.837,82.248L542.057,83.523L542.97,83.619L542.936,84.125L543.503,83.969L543.396,85.023L544.243,85.216L546.583,85.298L547.822,85.607L548.442,86.016L549.548,88.703L550.235,90.032L551.148,90.294L552.968,91.591L554.121,92.884L556.167,94.627L557.074,94.889L559.307,95.23L560.586,95.023L562.133,94.411L563.646,93.211L565.265,91.38L566.379,90.4L567.371,89.82L570.338,89.802L573.15,90.777L575.437,92.042L577.323,94.365L578.236,94.448L579.856,93.546L580.416,92.737L580.836,91.196L580.955,89.185L580.609,88.003L579.809,87.262L578.603,86.927L578.136,86.333L578.249,85.418L579.422,85.275L580.782,84.774L582.175,84.493L585.141,84.438L585.875,84.116L586.288,83.09L586.228,81.292L585.701,79.341L585.128,78.196L585.201,77.722L586.828,77L587.448,76.411L588.301,75.1L589.954,74.856L591.673,75.017L592.513,74.916L592.887,74.069L593.113,72.828L593.526,72.243L595.473,71.742L596.939,71.024L596.952,70.141L596.225,69.691L595.826,68.844L596.346,68.117L597.632,67.174L598.918,66.811L600.711,66.797L602.171,67.068L603.004,67.956L604.824,68.858L605.731,68.862L607.597,69.249L608.177,69.769L608.83,69.852L612.929,69.598L615.368,69.7L617.754,69.212L619.028,69.263L619.554,67.615L620.767,67.404L621.534,67.013L624.067,64.874L626.839,61.714L627.473,60.615L626.499,59.685L626.439,58.213L628.492,57.873L629.819,56.566L630.732,55.913L633.085,54.768L635.918,55.798L636.817,56.253L637.79,57.33L640.877,59.133L643.196,59.929L643.963,60.527L644.642,61.718L645.649,62.385L646.782,62.625L647.575,63.37L648.229,63.6L649.182,63.282L651.588,63.347L652.641,63.549L653.581,64.11L656.2,64.253L656.827,64.042L657.14,62.137L657.693,61.19L659.919,61.217L661.812,61.682L663.199,61.811L664.219,61.714L664.918,61.318L665.185,60.55L665.845,60.191L667.518,60.067L671.324,59.418L673.723,59.561L675.216,60.094L676.376,60.808L679.762,61.769L680.849,62.478L681.188,63.375L681.162,66.65L682.735,67.28L683.641,68.448L683.088,71.553L682.408,73.867L681.868,75.035L681.975,76.466L685.087,77.396L685.407,77.8L685.547,80.51L685.927,81.747L686.567,82.111L688.147,82.111L689.36,81.917L690.16,81.306L691.146,78.95L691.733,78.012L692.699,77.529L694.186,77.405L696.932,77.396L698.245,77.533L699.891,77.235L700.837,76.673L702.211,75.5L702.657,75.569L703.29,77.069L703.504,78.872L703.844,79.498L706.463,79.755L709.976,80.487L711.582,81.135L714.608,81.789L718.181,83.137L719.027,83.785L719.327,84.654L718.881,85.979L718.074,87.327L717.834,88.381L718.361,89.429L719.327,89.323L720.313,88.887L721.94,88.905L722.867,89.719L723.646,91.297L724.246,93.399L725.026,94.264L727.485,94.485L731.051,94.342L731.872,94.508L732.971,95.156L733.278,95.727L733.104,96.606L732.224,97.852L731.678,99.853L731.618,102.829L732.064,103.533L733.071,103.519L734.671,102.884L735.744,101.969L737.177,102.047L738.65,103.574L738.897,105.355L738.577,108.014L738.717,109.039L739.277,109.563L741.776,112.572L742.569,115.521L744.029,115.948L746.049,115.82L747.068,115.999L749.681,116.169L751.881,116.62L756.54,117.793L758.772,118.474L759.979,118.561L761.039,118.147L761.652,117.595L761.992,116.542L762.032,113.8L763.278,112.471L765.471,112.944L768.237,114.058L769.67,113.851L770.203,113.414L771.923,110.622L773.369,110.52L774.396,112.122L774.736,113.796L775.289,114.476L775.096,115.976L776.329,116.086L776.282,116.864L777.542,117.31L777.622,116.229L778.102,116.193L778.275,114.799L779.128,114.951L779.275,113.764L780.148,113.671L780.455,110.985L781.248,111.206L783.627,111.495L783.961,111.142L783.661,114.099L783.828,114.536L785.394,114.9L787.68,114.785L788.3,115.01L789.306,115.857L790.006,117.411L791.099,119.127L792.192,121.832L794.345,124.256L794.418,124.689L793.799,125.604L791.572,126.657L791.133,127.113L791.306,128.092L791.872,128.755L794.512,130.6L795.099,131.533L795.232,132.927L794.399,135.259L794.418,136.014L795.079,138.277L795.758,139.165L796.685,139.671L799.984,139.749L802.15,140.048L803.263,140.577L803.977,142.132L805.356,142.84ZM638.177,343.241L639.084,343.651L639.11,344.401L641.016,344.093L640.977,343.112L640.63,343.089L641.757,340.509L643.983,340.776L645.156,349.999L638.963,348.237L637.304,347.653L637.45,346.678L637.777,346.613L638.01,344.796L637.297,344.737L637.437,343.618Z" fill="#eee" opacity="0.5"></path><path d="M805.543,143.866L809.029,144.464L809.862,144.363L813.135,142.086L814.495,141.769L816.981,141.865L819.353,141.414L819.993,140.908L821.053,139.358L821.613,137.514L822.066,134.04L822.479,133.488L823.533,133.084L828.845,132.362L838.943,132.292L840.862,132.164L842.109,131.34L842.668,129.583L842.782,125.24L843.202,123.184L844.555,120.539L846.741,117.843L848.441,116.293L849.907,115.746L851.64,115.613L853.18,116.371L855.446,117.103L859.139,117.292L864.878,117.204L867.604,116.804L868.31,115.76L868.637,114.647L869.437,114.766L869.863,112.314L873.269,112.655L873.763,112.305L873.936,109.458L874.729,109.499L875.388,110.092L875.016,110.567L876.482,111.928L877.095,111.362L878.241,112.517L877.635,113.124L878.022,113.865L878.915,114.444L879.061,115.268L881.501,115.585L881.681,116.882L881.621,118.056L881.314,119.408L881.367,122.729L881.534,122.706L881.701,124.85L882.227,125.517L885.04,125.438L885.48,127.609L886.52,127.554L887.519,128.681L887.186,129.211L887.673,130.31L887.327,130.83L888.566,131.041L888.659,132.481L889.006,133.263L889.446,138.254L889.246,138.263L888.639,140.48L887.839,140.255L887.353,142.072L886.966,142.04L886.92,141.207L886.26,141.175L886.26,142.109L885.733,142.123L885.207,143.977L885.36,143.99L884.56,145.844L884.074,145.688L883.554,147.15L883.374,148.618L884.387,148.995L883.734,150.274L883.72,151.461L883.427,151.47L882.574,155.003L882.567,156.351L882.841,156.567L882.574,158.352L882.894,158.342L883.2,157.331L884.154,157.322L884.014,158.605L882.947,158.679L882.88,158.955L886.7,174.088L889.339,183.036L889.646,185.045L889.533,187.668L888.093,193.377L886.32,196.528L883.367,199.679L882.121,201.919L881.894,205.088L880.788,206.165L878.495,206.914L876.309,207.922L875.928,209.38L880.308,230.274L880.681,236.295L881.287,237.523L883.634,237.339L885.293,238.43L886.426,240.895L888.166,250.468L888.826,252.965L889.359,256.048L890.306,258.578L891.266,262.221L892.665,265.091L893.498,265.91L895.498,266.453L900.87,267.492L901.97,268.583L902.196,269.723L901.777,273.463L901.397,274.535L901.723,275.275L901.63,277.99L902.137,279.328L902.47,282.429L902.283,283.188L901.543,283.901L899.724,284.577L899.864,286.302L899.59,288.496L900.09,290.736L901.124,292.77L901.577,294.131L901.463,296.252L897.504,296.459L897.057,297.218L896.358,300.098L895.931,300.682L896.524,304.559L896.531,306.722L896.824,308.157L896.977,310.31L896.991,312.467L897.284,314.624L897.304,317.504L897.591,318.222L897.457,320.379L897.604,321.097L897.611,323.254L897.764,323.972L897.771,326.134L898.218,329L898.377,332.597L898.384,334.754L898.678,336.189L898.831,338.342L898.844,340.499L898.984,341.213L899.857,342.731L902.29,346.121L904.636,346.02L904.689,347.022L902.043,352.046L901.983,352.787L902.736,354.12L904.089,355.809L904.383,356.406L904.223,357.295L903.556,358.118L903.763,360.165L902.43,360.542L903.097,362.23L903.11,363.261L902.41,364.369L896.631,364.866L896.684,369.733L896.824,371.476L901.67,371.141L902.256,373.294L902.923,374.467L903.936,374.255L904.229,374.793L904.523,377.176L906.736,377.392L908.362,377.369L908.502,379.071L909.035,381.086L908.229,382.871L908.296,384.835L909.262,386.661L908.922,388.773L908.009,390.364L906.835,391.413L905.056,392.6L904.263,393.828L902.903,398.262L902.863,404.45L902.903,406.492L902.297,408.406L901.277,410.227L900.177,410.908L896.431,412.256L894.165,413.351L892.385,415.311L890.872,416.313L889.319,416.998L887.966,417.316L885.773,417.045L884.3,416.276L881.387,414.551L877.535,413.415L869.377,411.552L867.644,410.554L866.89,409.781L865.571,404.21L864.364,403.525L862.891,403.709L861.458,404.289L858.505,402.941L857.772,402.876L853.413,402.992L852.167,402.6L850.014,400.369L849.094,399.541L849.307,398.456L849.607,398.437L849.654,396.082L849.341,396.096L849.374,394.371L848.747,394.739L848.747,395.769L848.281,395.778L848.027,396.367L847.928,398.373L847.488,397.931L847.061,398.304L846.955,399.914L846.541,399.73L844.948,397.973L844.275,398.065L843.142,399.518L842.429,400.015L841.596,399.785L840.696,398.424L838.043,397.122L836.85,397.071L835.497,398.226L833.104,398.8L832.138,398.777L831.838,397.991L832.031,395.751L831.944,394.937L831.504,394.251L830.844,394.081L830.298,395.103L830.284,396.285L829.638,397.577L828.838,397.554L827.672,396.376L827.172,396.418L825.939,397.407L825.126,397.632L823.399,397.637L822.6,398.465L821.6,398.014L820.44,396.947L819.854,396.082L819.28,394.564L819.113,393.658L819.187,392.407L820.173,389.941L821.633,388.289L821.619,388.027L819.113,383.441L816.554,376.307L814.368,371.582L813.501,370.216L812.768,369.554L810.942,368.528L809.882,367.438L808.642,365.657L807.223,364.158L804.25,361.747L800.997,359.641L799.077,358.812L798.031,357.667L797.538,355.634L798.204,353.416L798.757,352.377L800.444,350.132L801.444,349.226L803.477,348.159L804.816,345.546L805.07,343.83L804.47,340.357L804.003,339.244L803.977,336.41L804.263,335.007L804.25,333.503L803.863,331.829L802.524,329.455L803.243,328.011L803.643,326.024L803.757,324.634L803.517,324.091L802.397,323.006L801.404,320.467L800.224,318.535L798.524,318.71L797.724,316.634L793.639,317.09L793.639,318.061L792.032,318.079L792.546,321.796L791.213,321.451L791.079,319.887L788.7,319.763L788.906,318.668L791.119,318.893L791.346,315.705L793.912,314.933L793.659,314.196L792.072,312.361L790.999,312.058L787.073,312.223L784.121,312.771L783.307,312.416L783.067,311.708L782.261,310.48L781.794,309.036L781.841,307.301L781.328,305.507L780.202,303.331L778.929,301.878L777.689,300.921L776.782,300.783L774.169,301.593L772.31,302.94L771.423,303.106L770.19,302.729L768.604,301.859L767.498,300.778L767.077,300.083L766.851,298.975L767.204,298.17L767.011,295.217L766.404,293.51L767.724,293.303L768.384,292.802L767.424,291.044L767.124,289.605L765.944,286.021L765.578,284.246L763.712,282.751L762.372,281.918L759.712,280.824L757.039,279.59L754.393,279.089L752.78,278.992L751.028,279.052L748.675,278.831L745.042,279.682L741.682,279.94L736.55,282.286L733.911,282.121L729.812,282.093L725.126,282.502L721.294,283.938L716.741,285.957L711.602,287.526L706.376,290.258L697.572,296.04L695.766,297.875L695.239,298.966L693.526,303.75L692.719,305.286L692.253,305.705L692.246,305.047L690.393,305.098L690.14,302.71L687.334,302.871L687.081,303.506L684.754,303.589L685.021,304.771L684.588,304.928L683.341,305.388L684.374,307.076L680.522,307.38L677.709,306.823L676.516,303.253L673.17,303.888L670.131,303.695L668.277,305.558L667.571,305.774L667.651,304.702L665.945,304.923L665.851,303.985L662.752,303.529L663.392,307.632L662.539,308L662.625,308.663L661.519,309.15L663.339,313.755L662.352,314.265L662.525,315.25L663.839,314.845L664.465,316.828L663.545,316.947L663.325,319.496L665.431,319.206L668.178,325.927L668.844,328.411L662.919,329.929L662.679,337.51L663.585,337.293L663.739,338.49L663.632,340.651L663.659,344.437L663.225,346.843L662.632,348.062L661.192,349.691L659.206,351.567L658.4,351.83L655.96,351.954L653.268,351.627L645.156,349.999L643.983,340.776L644.596,340.688L644.596,339.226L642.876,339.106L642.669,339.897L641.363,339.861L641.757,340.509L640.63,343.089L640.337,342.547L638.23,342.597L638.177,343.241L637.437,343.618L637.517,343.264L635.045,343.117L634.791,344.345L635.084,344.488L634.991,346.162L634.764,346.682L633.698,345.776L632.685,346.544L631.858,346.503L630.758,344.925L629.939,344.828L629.159,346.544L628.593,346.678L625.18,345.422L622.08,346.705L619.461,344.175L618.801,344.005L616.235,344.474L614.309,344.557L612.829,344.989L612.756,345.91L613.782,346.158L613.836,347.63L615.162,347.846L615.288,348.817L617.175,348.807L617.268,350.399L615.208,350.565L615.402,351.867L611.469,352.165L611.383,354.194L612.776,354.134L612.816,355.45L610.263,355.827L610.07,354.663L602.771,355.146L602.651,354.024L601.325,354.051L599.978,354.442L598.678,354.58L597.332,354.438L597.085,355.377L598.252,355.234L598.419,356.406L597.465,356.512L597.392,357.405L595.852,357.524L596.012,357.994L595.672,358.698L595.766,359.774L596.999,359.581L597.132,360.593L596.559,361.264L595.653,361.333L595.612,362.115L594.446,362.134L593.553,361.724L593.573,362.557L591.627,362.359L591.447,361.356L591.154,361.32L591.04,366.163L589.987,367.336L590.567,367.64L592.113,367.925L593.006,368.487L593.76,369.632L593.246,372.447L593.286,373.602L593.639,374.632L594.599,375.617L602.965,379.251L609.543,380.534L610.249,381.987L610.569,393.396L606.157,403.783L606.017,405.926L606.224,411.474L606.57,412.905L606.117,416.534L604.104,416.239L604.057,419.703L600.711,419.543L600.838,422.141L600.072,422.266L599.819,423.898L598.205,424L598.465,426.755L597.619,427.395L597.005,428.614L596.346,428.729L596.506,430.472L596.992,430.49L596.872,432.078L597.599,432.109L597.459,433.881L597.832,433.913L597.785,435.353L599.538,435.293L600.852,435.054L601.278,437.128L604.797,436.705L604.877,437.294L605.923,437.275L605.337,438.007L607.83,438.448L607.717,440.293L609.45,440.408L609.69,441.434L609.536,442.243L611.069,441.811L611.749,446.19L611.183,446.287L611.25,447.975L609.503,447.911L609.389,450.901L608.57,450.882L608.257,451.605L606.21,451.402L606.237,452.492L604.59,452.189L605.604,453.85L602.891,453.362L600.818,453.684L599.872,454.88L600.052,455.869L600.765,457.433L600.765,458.307L600.245,460.57L598.099,462.636L595.333,464.591L592.9,465.419L591.7,465.303L590.834,464.825L589.834,461.614L589.294,460.276L586.808,455.308L584.961,455.409L584.268,455.957L583.568,457.046L582.035,461.38L581.682,466.076L581.395,466.73L580.736,467.309L579.136,467.636L573.99,466.353L572.824,466.348L569.778,465.975L568.545,465.575L564.959,463.708L562.746,462.645L561.873,462.539L558.347,463.151L556.494,463.694L554.461,463.91L551.555,464.485L549.015,464.664L548.256,463.565L547.789,461.96L547.176,460.469L546.709,460.027L545.656,459.88L544.923,460.354L544.87,461.54L545.223,464.895L544.943,466.532L543.576,468.303L541.637,469.214L540.664,469.131L539.651,468.39L538.977,467.507L537.618,466.573L535.838,465.869L534.932,465.28L534.065,465.023L531.745,464.77L524.207,470L523.394,463.271L527.666,460.027L529.746,456.214L525.387,455.851L517.429,455.032L514.942,452.382L515.536,450.344L516.275,448.453L518.628,444.825L517.775,442.046L516.029,441.153L514.436,440.997L512.703,438.941L511.423,433.678L510.877,428.857L509.717,427.827L508.403,427.961L506.99,429.133L505.518,429.92L503.818,430.408L501.425,430.615L499.526,430.44L498.306,429.902L496.926,428.301L495.633,425.665L494.666,425.325L493.74,426.083L491.707,426.944L487.348,427.634L485.448,428.637L481.669,429.916L479.789,430.192L477.896,430.32L476.597,429.575L474.277,429.41L471.511,430.697L466.566,432.698L459.587,434.534L456.508,435.164L455.315,435.624L454.155,435.688L451.989,436.411L450.862,436.48L448.676,437.156L446.196,437.041L445.983,436.125L445.703,427.947L444.697,424.69L444.117,423.535L443.464,422.914L441.477,421.626L439.191,420.775L437.638,420.412L436.079,420.582L434.445,421.493L433.899,421.999L432.852,422.436L429.373,421.474L428.5,420.968L426.98,419.432L425.894,418.512L424.408,417.817L422.701,417.307L420.881,416.386L419.109,414.74L417.369,414.234L416.242,414.197L414.643,413.571L413.556,412.656L411.197,411.382L410.47,410.765L408.071,409.777L405.198,408.935L404.405,408.171L404.545,407.513L406.218,406.092L407.891,403.792L409.93,402.26L412.183,402.697L413.13,402.518L414.876,401.055L415.643,399.707L415.456,399.233L414.656,398.865L412.803,398.76L411.79,397.186L411.25,394.997L410.704,393.938L409.797,391.565L409.111,388.428L409.477,385.139L409.511,383.28L409.95,380.911L410.317,380.139L411.63,376.127L411.85,374.011L411.523,371.964L411.05,370.722L410.257,369.627L409.45,368.859L407.804,367.856L406.771,364.871L404.065,360.883L402.005,358.352L399.513,353.453L398.366,347.312L400.879,340.596L403.965,335.922L407.351,331.106L409.411,326.875L410.897,321.617L411.797,316.791L416.929,311.833L421.028,309.951L424.84,306.896L425.88,301.344L426.207,295.346L425.947,288.174L426.107,284.812L426.28,278.956L425.754,278.376L424.387,276.081L422.801,273.67L420.341,268.978L419.782,262.096L417.922,253.89L416.909,250.661L414.87,247.579L411.957,245.228L406.404,244.042L403.492,244.658L402.532,245.187L399.826,245.003L399.333,244.409L395.147,243.122L392.254,243.324L390.608,245.568L390.488,248.821L390.054,252.096L389.268,252.864L388.388,253.37L387.288,253.697L385.242,253.614L384.475,253.315L383.649,251.815L383.149,249.801L382.356,247.933L380.59,244.52L379.097,242.201L377.317,240.724L376.797,238.701L377.157,235.614L380.097,232.394L383.122,230.236L380.896,226.75L380.396,226.248L378.65,225.324L375.177,224.762L373.904,223.916L372.452,222.37L370.339,221.303L368.952,220.158L368.339,219.284L366.399,217.867L364.4,217.398L361.12,216.436L360.141,215.659L357.255,215.171L356.381,214.435L355.841,213.299L355.681,209.155L355.508,207.434L355.001,206.661L352.915,207.167L350.909,207.416L349.409,207.775L347.33,207.655L346.71,207.029L345.917,205.263L343.617,198.841L342.891,197.811L340.811,197.581L337.125,198.805L334.592,200.994L334.446,201.279L335.472,205.433L335.013,208.037L334.233,209.237L331.78,211.91L327.587,211.524L325.041,205.194L318.843,201.965L305.565,204.794L301.479,205.949L296.074,206.215L290.668,204.729L289.515,204.007L287.675,202.42L286.922,201.537L286.123,199.734L285.149,196.725L284.796,196.137L284.869,195.263L283.743,194.738L281.877,194.729L280.323,192.41L279.524,191.67L278.071,191.334L276.464,191.325L276.284,190.773L276.471,188.694L276.331,187.111L275.904,186.08L274.264,184.535L274.858,183.036L275.438,182.157L276.544,179.742L276.004,177.465L273.718,175.105L270.705,171.572L269.792,170.358L267.84,166.14L266.546,165.532L266.373,165.178L261.814,157.575L260.941,153.324L261.241,150.532L262.12,148.19L263.447,143.935L262.28,139.238L257.155,135.563L252.316,133.944L247.184,132.771L243.964,130.568L242.738,127.559L242.945,120.006L243.604,116.202L244.438,114.771L244.411,112.498L245.257,109.706L247.104,106.224L247.63,103.873L248.21,102.553L249.797,100.828L250.936,100.133L252.176,100.722L255.615,101.872L257.182,102.203L259.008,102.838L260.947,102.916L262.194,102.59L265.187,102.052L268.192,100.672L269.586,99.793L270.939,99.319L272.879,99.039L277.158,97.148L279.204,96.463L281.143,96.141L282.783,96.071L283.729,97.107L284.016,98.068L285.396,98.703L286.382,98.776L287.369,99.522L287.802,100.184L288.862,100.005L290.648,99.246L292.741,97.493L293.434,96.693L294.354,94.195L294.874,93.468L295.567,93.182L298.047,92.608L299.513,91.701L300.1,90.381L299.846,89.241L299.346,88.136L299.853,87.884L300.619,88.031L302.192,87.525L303.699,86.439L304.905,84.903L305.052,83.909L304.698,82.663L304.625,81.411L305.912,80.284L306.205,79.695L306.318,77.75L307.205,76.508L307.971,75.74L308.784,74.424L309.158,73.173L309.851,71.82L311.317,70.767L312.444,71.066L316.17,71.498L318.649,70.923L319.389,70.265L320.489,68.913L322.402,65.914L323.248,64.409L323.981,63.609L325.594,62.556L325.608,61.525L325.361,58.328L325.474,57.666L326.207,56.346L329.654,54.455L330.827,54.207L332.04,53.59L334.559,53.567L336.132,53.866L337.625,54.391L342.264,54.253L343.584,54.791L349.19,54.377L350.729,53.392L353.635,51.166L353.535,49.878L353.828,48.48L353.695,46.828L353.775,45.614L354.582,45.356L356.334,45.733L358.541,44.68L359.314,44.68L363.007,45.581L365.826,45.922L367.152,45.333L368.652,45.19L370.918,45.83L372.311,45.683L373.931,45.067L374.777,44.225L374.678,43.268L373.405,41.17L372.971,40.172L372.791,38.994L372.878,37.559L373.405,34.477L373.044,33.152L373.124,32.269L373.611,31.243L376.084,27.867L376.757,26.473L377.017,25.116L376.844,23.939L376.37,22.977L375.091,21.426L374.658,20.143L375.004,18.156L375.557,17.167L376.297,16.468L378.25,15.594L378.837,14.821L378.997,12.576L379.59,11.256L380.73,11.04L382.049,11.118L384.656,11.528L386.048,11.169L387.528,10.069L388.302,10L390.821,10.676L392.027,11.412L392.654,12.484L393.154,13.777L393.474,15.203L394.127,16.343L394.793,16.758L396.107,16.578L397.533,16.919L398.446,17.581L399.399,18.685L402.579,20.212L403.492,20.912L403.405,22.236L402.325,24.366L401.619,26.459L401.685,27.412L405.598,29.196L407.284,29.421L408.784,29.325L409.671,28.778L410.297,27.821L410.917,27.935L411.39,28.566L413.763,29.863L415.149,30.056L416.109,29.988L420.028,28.874L422.561,28.884L424.607,29.16L426.28,29.868L427.047,30.539L426.12,32.255L425.96,34.063L425.034,36.262L423.587,39.187L423.581,40.034L424.094,40.407L424.307,41.147L423.967,41.874L423.128,42.49L422.755,43.189L423.228,43.714L424.794,44.266L426.034,45.669L426.014,46.506L426.687,46.971L428.747,46.92L431.393,47.785L434.565,46.363L435.098,46.363L435.785,47.035L436.878,47.371L439.491,49.161L441.557,50.798L443.523,51.953L443.77,53.609L444.424,54.128L445.15,54.17L446.07,53.517L446.983,53.273L447.636,53.572L448.862,55.453L450.642,56.539L452.869,56.378L453.855,56.824L457.007,58.848L457.921,58.747L458.44,57.974L459.434,55.637L459.773,54.538L461.58,52.173L463.079,51.12L465.339,50.996L467.738,51.944L469.951,53.434L471.478,53.852L472.678,53.797L473.771,53.443L476.41,51.557L477.91,51.208L478.523,51.732L479.103,52.914L481.769,55.665L482.169,56.658L482.162,57.51L481.049,59.552L481.083,60.288L482.022,61.175L483.249,62.666L487.834,67.128L496.78,70.458L500.492,71.231L502.132,71.245L502.971,70.923L504.444,69.764L505.257,68.49L506.504,67.399L507.491,66.857L510.963,65.937L514.363,65.863L515.929,66.134L517.222,66.751L518.555,66.705L521.174,67.837L525.573,70.077L527.767,70.316L529.852,70.15L531.965,71.268L533.299,72.142L533.565,72.529L534.592,72.979L535.858,74.419L536.831,76.227L538.258,76.457L538.484,78.766L539.004,79.355L539.118,80.661L540.697,80.739L541.017,81.329L541.03,82.377L541.43,81.959L542.837,82.248L542.057,83.523L542.97,83.619L542.936,84.125L543.503,83.969L543.396,85.023L544.243,85.216L546.583,85.298L547.822,85.607L548.442,86.016L549.548,88.703L550.235,90.032L551.148,90.294L552.968,91.591L554.121,92.884L556.167,94.627L557.074,94.889L559.307,95.23L560.586,95.023L562.133,94.411L563.646,93.211L565.265,91.38L566.379,90.4L567.371,89.82L570.338,89.802L573.15,90.777L575.437,92.042L577.323,94.365L578.236,94.448L579.856,93.546L580.416,92.737L580.836,91.196L580.955,89.185L580.609,88.003L579.809,87.262L578.603,86.927L578.136,86.333L578.249,85.418L579.422,85.275L580.782,84.774L582.175,84.493L585.141,84.438L585.875,84.116L586.288,83.09L586.228,81.292L585.701,79.341L585.128,78.196L585.201,77.722L586.828,77L587.448,76.411L588.301,75.1L589.954,74.856L591.673,75.017L592.513,74.916L592.887,74.069L593.113,72.828L593.526,72.243L595.473,71.742L596.939,71.024L596.952,70.141L596.225,69.691L595.826,68.844L596.346,68.117L597.632,67.174L598.918,66.811L600.711,66.797L602.171,67.068L603.004,67.956L604.824,68.858L605.731,68.862L607.597,69.249L608.177,69.769L608.83,69.852L612.929,69.598L615.368,69.7L617.754,69.212L619.028,69.263L619.554,67.615L620.767,67.404L621.534,67.013L624.067,64.874L626.839,61.714L627.473,60.615L626.499,59.685L626.439,58.213L628.492,57.873L629.819,56.566L630.732,55.913L633.085,54.768L635.918,55.798L636.817,56.253L637.79,57.33L640.877,59.133L643.196,59.929L643.963,60.527L644.642,61.718L645.649,62.385L646.782,62.625L647.575,63.37L648.229,63.6L649.182,63.282L651.588,63.347L652.641,63.549L653.581,64.11L656.2,64.253L656.827,64.042L657.14,62.137L657.693,61.19L659.919,61.217L661.812,61.682L663.199,61.811L664.219,61.714L664.918,61.318L665.185,60.55L665.845,60.191L667.518,60.067L671.324,59.418L673.723,59.561L675.216,60.094L676.376,60.808L679.762,61.769L680.849,62.478L681.188,63.375L681.162,66.65L682.735,67.28L683.641,68.448L683.088,71.553L682.408,73.867L681.868,75.035L681.975,76.466L685.087,77.396L685.407,77.8L685.547,80.51L685.927,81.747L686.567,82.111L688.147,82.111L689.36,81.917L690.16,81.306L691.146,78.95L691.733,78.012L692.699,77.529L694.186,77.405L696.932,77.396L698.245,77.533L699.891,77.235L700.837,76.673L702.211,75.5L702.657,75.569L703.29,77.069L703.504,78.872L703.844,79.498L706.463,79.755L709.976,80.487L711.582,81.135L714.608,81.789L718.181,83.137L719.027,83.785L719.327,84.654L718.881,85.979L718.074,87.327L717.834,88.381L718.361,89.429L719.327,89.323L720.313,88.887L721.94,88.905L722.867,89.719L723.646,91.297L724.246,93.399L725.026,94.264L727.485,94.485L731.051,94.342L731.872,94.508L732.971,95.156L733.278,95.727L733.104,96.606L732.224,97.852L731.678,99.853L731.618,102.829L732.064,103.533L733.071,103.519L734.671,102.884L735.744,101.969L737.177,102.047L738.65,103.574L738.897,105.355L738.577,108.014L738.717,109.039L739.277,109.563L741.776,112.572L742.569,115.521L744.029,115.948L746.049,115.82L747.068,115.999L749.681,116.169L751.881,116.62L756.54,117.793L758.772,118.474L759.979,118.561L761.039,118.147L761.652,117.595L761.992,116.542L762.032,113.8L763.278,112.471L765.471,112.944L768.237,114.058L769.67,113.851L770.203,113.414L771.923,110.622L773.369,110.52L774.396,112.122L774.736,113.796L775.289,114.476L775.096,115.976L776.329,116.086L776.282,116.864L777.542,117.31L777.622,116.229L778.102,116.193L778.275,114.799L779.128,114.951L779.275,113.764L780.148,113.671L780.455,110.985L781.248,111.206L783.627,111.495L783.961,111.142L783.661,114.099L783.828,114.536L785.394,114.9L787.68,114.785L788.3,115.01L789.306,115.857L790.006,117.411L791.099,119.127L792.192,121.832L794.345,124.256L794.418,124.689L793.799,125.604L791.572,126.657L791.133,127.113L791.306,128.092L791.872,128.755L794.512,130.6L795.099,131.533L795.232,132.927L794.399,135.259L794.418,136.014L795.079,138.277L795.758,139.165L796.685,139.671L799.984,139.749L802.15,140.048L803.263,140.577L803.977,142.132L805.356,142.84ZM638.177,343.241L639.084,343.651L639.11,344.401L641.016,344.093L640.977,343.112L640.63,343.089L641.757,340.509L643.983,340.776L645.156,349.999L638.963,348.237L637.304,347.653L637.45,346.678L637.777,346.613L638.01,344.796L637.297,344.737L637.437,343.618Z" stroke="#747569" stroke-width="1" stroke-dasharray="3,3" fill="none"></path><path d="M805.543,143.866L809.029,144.464L809.862,144.363L813.135,142.086L814.495,141.769L816.981,141.865L819.353,141.414L819.993,140.908L821.053,139.358L821.613,137.514L822.066,134.04L822.479,133.488L823.533,133.084L828.845,132.362L838.943,132.292L840.862,132.164L842.109,131.34L842.668,129.583L842.782,125.24L843.202,123.184L844.555,120.539L846.741,117.843L848.441,116.293L849.907,115.746L851.64,115.613L853.18,116.371L855.446,117.103L859.139,117.292L864.878,117.204L867.604,116.804L868.31,115.76L868.637,114.647L869.437,114.766L869.863,112.314L873.269,112.655L873.763,112.305L873.936,109.458L874.729,109.499L875.388,110.092L875.016,110.567L876.482,111.928L877.095,111.362L878.241,112.517L877.635,113.124L878.022,113.865L878.915,114.444L879.061,115.268L881.501,115.585L881.681,116.882L881.621,118.056L881.314,119.408L881.367,122.729L881.534,122.706L881.701,124.85L882.227,125.517L885.04,125.438L885.48,127.609L886.52,127.554L887.519,128.681L887.186,129.211L887.673,130.31L887.327,130.83L888.566,131.041L888.659,132.481L889.006,133.263L889.446,138.254L889.246,138.263L888.639,140.48L887.839,140.255L887.353,142.072L886.966,142.04L886.92,141.207L886.26,141.175L886.26,142.109L885.733,142.123L885.207,143.977L885.36,143.99L884.56,145.844L884.074,145.688L883.554,147.15L883.374,148.618L884.387,148.995L883.734,150.274L883.72,151.461L883.427,151.47L882.574,155.003L882.567,156.351L882.841,156.567L882.574,158.352L882.894,158.342L883.2,157.331L884.154,157.322L884.014,158.605L882.947,158.679L882.88,158.955L886.7,174.088L889.339,183.036L889.646,185.045L889.533,187.668L888.093,193.377L886.32,196.528L883.367,199.679L882.121,201.919L881.894,205.088L880.788,206.165L878.495,206.914L876.309,207.922L875.928,209.38L880.308,230.274L880.681,236.295L881.287,237.523L883.634,237.339L885.293,238.43L886.426,240.895L888.166,250.468L888.826,252.965L889.359,256.048L890.306,258.578L891.266,262.221L892.665,265.091L893.498,265.91L895.498,266.453L900.87,267.492L901.97,268.583L902.196,269.723L901.777,273.463L901.397,274.535L901.723,275.275L901.63,277.99L902.137,279.328L902.47,282.429L902.283,283.188L901.543,283.901L899.724,284.577L899.864,286.302L899.59,288.496L900.09,290.736L901.124,292.77L901.577,294.131L901.463,296.252L897.504,296.459L897.057,297.218L896.358,300.098L895.931,300.682L896.524,304.559L896.531,306.722L896.824,308.157L896.977,310.31L896.991,312.467L897.284,314.624L897.304,317.504L897.591,318.222L897.457,320.379L897.604,321.097L897.611,323.254L897.764,323.972L897.771,326.134L898.218,329L898.377,332.597L898.384,334.754L898.678,336.189L898.831,338.342L898.844,340.499L898.984,341.213L899.857,342.731L902.29,346.121L904.636,346.02L904.689,347.022L902.043,352.046L901.983,352.787L902.736,354.12L904.089,355.809L904.383,356.406L904.223,357.295L903.556,358.118L903.763,360.165L902.43,360.542L903.097,362.23L903.11,363.261L902.41,364.369L896.631,364.866L896.684,369.733L896.824,371.476L901.67,371.141L902.256,373.294L902.923,374.467L903.936,374.255L904.229,374.793L904.523,377.176L906.736,377.392L908.362,377.369L908.502,379.071L909.035,381.086L908.229,382.871L908.296,384.835L909.262,386.661L908.922,388.773L908.009,390.364L906.835,391.413L905.056,392.6L904.263,393.828L902.903,398.262L902.863,404.45L902.903,406.492L902.297,408.406L901.277,410.227L900.177,410.908L896.431,412.256L894.165,413.351L892.385,415.311L890.872,416.313L889.319,416.998L887.966,417.316L885.773,417.045L884.3,416.276L881.387,414.551L877.535,413.415L869.377,411.552L867.644,410.554L866.89,409.781L865.571,404.21L864.364,403.525L862.891,403.709L861.458,404.289L858.505,402.941L857.772,402.876L853.413,402.992L852.167,402.6L850.014,400.369L849.094,399.541L849.307,398.456L849.607,398.437L849.654,396.082L849.341,396.096L849.374,394.371L848.747,394.739L848.747,395.769L848.281,395.778L848.027,396.367L847.928,398.373L847.488,397.931L847.061,398.304L846.955,399.914L846.541,399.73L844.948,397.973L844.275,398.065L843.142,399.518L842.429,400.015L841.596,399.785L840.696,398.424L838.043,397.122L836.85,397.071L835.497,398.226L833.104,398.8L832.138,398.777L831.838,397.991L832.031,395.751L831.944,394.937L831.504,394.251L830.844,394.081L830.298,395.103L830.284,396.285L829.638,397.577L828.838,397.554L827.672,396.376L827.172,396.418L825.939,397.407L825.126,397.632L823.399,397.637L822.6,398.465L821.6,398.014L820.44,396.947L819.854,396.082L819.28,394.564L819.113,393.658L819.187,392.407L820.173,389.941L821.633,388.289L821.619,388.027L819.113,383.441L816.554,376.307L814.368,371.582L813.501,370.216L812.768,369.554L810.942,368.528L809.882,367.438L808.642,365.657L807.223,364.158L804.25,361.747L800.997,359.641L799.077,358.812L798.031,357.667L797.538,355.634L798.204,353.416L798.757,352.377L800.444,350.132L801.444,349.226L803.477,348.159L804.816,345.546L805.07,343.83L804.47,340.357L804.003,339.244L803.977,336.41L804.263,335.007L804.25,333.503L803.863,331.829L802.524,329.455L803.243,328.011L803.643,326.024L803.757,324.634L803.517,324.091L802.397,323.006L801.404,320.467L800.224,318.535L798.524,318.71L797.724,316.634L793.639,317.09L793.639,318.061L792.032,318.079L792.546,321.796L791.213,321.451L791.079,319.887L788.7,319.763L788.906,318.668L791.119,318.893L791.346,315.705L793.912,314.933L793.659,314.196L792.072,312.361L790.999,312.058L787.073,312.223L784.121,312.771L783.307,312.416L783.067,311.708L782.261,310.48L781.794,309.036L781.841,307.301L781.328,305.507L780.202,303.331L778.929,301.878L777.689,300.921L776.782,300.783L774.169,301.593L772.31,302.94L771.423,303.106L770.19,302.729L768.604,301.859L767.498,300.778L767.077,300.083L766.851,298.975L767.204,298.17L767.011,295.217L766.404,293.51L767.724,293.303L768.384,292.802L767.424,291.044L767.124,289.605L765.944,286.021L765.578,284.246L763.712,282.751L762.372,281.918L759.712,280.824L757.039,279.59L754.393,279.089L752.78,278.992L751.028,279.052L748.675,278.831L745.042,279.682L741.682,279.94L736.55,282.286L733.911,282.121L729.812,282.093L725.126,282.502L721.294,283.938L716.741,285.957L711.602,287.526L706.376,290.258L697.572,296.04L695.766,297.875L695.239,298.966L693.526,303.75L692.719,305.286L692.253,305.705L692.246,305.047L690.393,305.098L690.14,302.71L687.334,302.871L687.081,303.506L684.754,303.589L685.021,304.771L684.588,304.928L683.341,305.388L684.374,307.076L680.522,307.38L677.709,306.823L676.516,303.253L673.17,303.888L670.131,303.695L668.277,305.558L667.571,305.774L667.651,304.702L665.945,304.923L665.851,303.985L662.752,303.529L663.392,307.632L662.539,308L662.625,308.663L661.519,309.15L663.339,313.755L662.352,314.265L662.525,315.25L663.839,314.845L664.465,316.828L663.545,316.947L663.325,319.496L665.431,319.206L668.178,325.927L668.844,328.411L662.919,329.929L662.679,337.51L663.585,337.293L663.739,338.49L663.632,340.651L663.659,344.437L663.225,346.843L662.632,348.062L661.192,349.691L659.206,351.567L658.4,351.83L655.96,351.954L653.268,351.627L645.156,349.999L643.983,340.776L644.596,340.688L644.596,339.226L642.876,339.106L642.669,339.897L641.363,339.861L641.757,340.509L640.63,343.089L640.337,342.547L638.23,342.597L638.177,343.241L637.437,343.618L637.517,343.264L635.045,343.117L634.791,344.345L635.084,344.488L634.991,346.162L634.764,346.682L633.698,345.776L632.685,346.544L631.858,346.503L630.758,344.925L629.939,344.828L629.159,346.544L628.593,346.678L625.18,345.422L622.08,346.705L619.461,344.175L618.801,344.005L616.235,344.474L614.309,344.557L612.829,344.989L612.756,345.91L613.782,346.158L613.836,347.63L615.162,347.846L615.288,348.817L617.175,348.807L617.268,350.399L615.208,350.565L615.402,351.867L611.469,352.165L611.383,354.194L612.776,354.134L612.816,355.45L610.263,355.827L610.07,354.663L602.771,355.146L602.651,354.024L601.325,354.051L599.978,354.442L598.678,354.58L597.332,354.438L597.085,355.377L598.252,355.234L598.419,356.406L597.465,356.512L597.392,357.405L595.852,357.524L596.012,357.994L595.672,358.698L595.766,359.774L596.999,359.581L597.132,360.593L596.559,361.264L595.653,361.333L595.612,362.115L594.446,362.134L593.553,361.724L593.573,362.557L591.627,362.359L591.447,361.356L591.154,361.32L591.04,366.163L589.987,367.336L590.567,367.64L592.113,367.925L593.006,368.487L593.76,369.632L593.246,372.447L593.286,373.602L593.639,374.632L594.599,375.617L602.965,379.251L609.543,380.534L610.249,381.987L610.569,393.396L606.157,403.783L606.017,405.926L606.224,411.474L606.57,412.905L606.117,416.534L604.104,416.239L604.057,419.703L600.711,419.543L600.838,422.141L600.072,422.266L599.819,423.898L598.205,424L598.465,426.755L597.619,427.395L597.005,428.614L596.346,428.729L596.506,430.472L596.992,430.49L596.872,432.078L597.599,432.109L597.459,433.881L597.832,433.913L597.785,435.353L599.538,435.293L600.852,435.054L601.278,437.128L604.797,436.705L604.877,437.294L605.923,437.275L605.337,438.007L607.83,438.448L607.717,440.293L609.45,440.408L609.69,441.434L609.536,442.243L611.069,441.811L611.749,446.19L611.183,446.287L611.25,447.975L609.503,447.911L609.389,450.901L608.57,450.882L608.257,451.605L606.21,451.402L606.237,452.492L604.59,452.189L605.604,453.85L602.891,453.362L600.818,453.684L599.872,454.88L600.052,455.869L600.765,457.433L600.765,458.307L600.245,460.57L598.099,462.636L595.333,464.591L592.9,465.419L591.7,465.303L590.834,464.825L589.834,461.614L589.294,460.276L586.808,455.308L584.961,455.409L584.268,455.957L583.568,457.046L582.035,461.38L581.682,466.076L581.395,466.73L580.736,467.309L579.136,467.636L573.99,466.353L572.824,466.348L569.778,465.975L568.545,465.575L564.959,463.708L562.746,462.645L561.873,462.539L558.347,463.151L556.494,463.694L554.461,463.91L551.555,464.485L549.015,464.664L548.256,463.565L547.789,461.96L547.176,460.469L546.709,460.027L545.656,459.88L544.923,460.354L544.87,461.54L545.223,464.895L544.943,466.532L543.576,468.303L541.637,469.214L540.664,469.131L539.651,468.39L538.977,467.507L537.618,466.573L535.838,465.869L534.932,465.28L534.065,465.023L531.745,464.77L524.207,470L523.394,463.271L527.666,460.027L529.746,456.214L525.387,455.851L517.429,455.032L514.942,452.382L515.536,450.344L516.275,448.453L518.628,444.825L517.775,442.046L516.029,441.153L514.436,440.997L512.703,438.941L511.423,433.678L510.877,428.857L509.717,427.827L508.403,427.961L506.99,429.133L505.518,429.92L503.818,430.408L501.425,430.615L499.526,430.44L498.306,429.902L496.926,428.301L495.633,425.665L494.666,425.325L493.74,426.083L491.707,426.944L487.348,427.634L485.448,428.637L481.669,429.916L479.789,430.192L477.896,430.32L476.597,429.575L474.277,429.41L471.511,430.697L466.566,432.698L459.587,434.534L456.508,435.164L455.315,435.624L454.155,435.688L451.989,436.411L450.862,436.48L448.676,437.156L446.196,437.041L445.983,436.125L445.703,427.947L444.697,424.69L444.117,423.535L443.464,422.914L441.477,421.626L439.191,420.775L437.638,420.412L436.079,420.582L434.445,421.493L433.899,421.999L432.852,422.436L429.373,421.474L428.5,420.968L426.98,419.432L425.894,418.512L424.408,417.817L422.701,417.307L420.881,416.386L419.109,414.74L417.369,414.234L416.242,414.197L414.643,413.571L413.556,412.656L411.197,411.382L410.47,410.765L408.071,409.777L405.198,408.935L404.405,408.171L404.545,407.513L406.218,406.092L407.891,403.792L409.93,402.26L412.183,402.697L413.13,402.518L414.876,401.055L415.643,399.707L415.456,399.233L414.656,398.865L412.803,398.76L411.79,397.186L411.25,394.997L410.704,393.938L409.797,391.565L409.111,388.428L409.477,385.139L409.511,383.28L409.95,380.911L410.317,380.139L411.63,376.127L411.85,374.011L411.523,371.964L411.05,370.722L410.257,369.627L409.45,368.859L407.804,367.856L406.771,364.871L404.065,360.883L402.005,358.352L399.513,353.453L398.366,347.312L400.879,340.596L403.965,335.922L407.351,331.106L409.411,326.875L410.897,321.617L411.797,316.791L416.929,311.833L421.028,309.951L424.84,306.896L425.88,301.344L426.207,295.346L425.947,288.174L426.107,284.812L426.28,278.956L425.754,278.376L424.387,276.081L422.801,273.67L420.341,268.978L419.782,262.096L417.922,253.89L416.909,250.661L414.87,247.579L411.957,245.228L406.404,244.042L403.492,244.658L402.532,245.187L399.826,245.003L399.333,244.409L395.147,243.122L392.254,243.324L390.608,245.568L390.488,248.821L390.054,252.096L389.268,252.864L388.388,253.37L387.288,253.697L385.242,253.614L384.475,253.315L383.649,251.815L383.149,249.801L382.356,247.933L380.59,244.52L379.097,242.201L377.317,240.724L376.797,238.701L377.157,235.614L380.097,232.394L383.122,230.236L380.896,226.75L380.396,226.248L378.65,225.324L375.177,224.762L373.904,223.916L372.452,222.37L370.339,221.303L368.952,220.158L368.339,219.284L366.399,217.867L364.4,217.398L361.12,216.436L360.141,215.659L357.255,215.171L356.381,214.435L355.841,213.299L355.681,209.155L355.508,207.434L355.001,206.661L352.915,207.167L350.909,207.416L349.409,207.775L347.33,207.655L346.71,207.029L345.917,205.263L343.617,198.841L342.891,197.811L340.811,197.581L337.125,198.805L334.592,200.994L334.446,201.279L335.472,205.433L335.013,208.037L334.233,209.237L331.78,211.91L327.587,211.524L325.041,205.194L318.843,201.965L305.565,204.794L301.479,205.949L296.074,206.215L290.668,204.729L289.515,204.007L287.675,202.42L286.922,201.537L286.123,199.734L285.149,196.725L284.796,196.137L284.869,195.263L283.743,194.738L281.877,194.729L280.323,192.41L279.524,191.67L278.071,191.334L276.464,191.325L276.284,190.773L276.471,188.694L276.331,187.111L275.904,186.08L274.264,184.535L274.858,183.036L275.438,182.157L276.544,179.742L276.004,177.465L273.718,175.105L270.705,171.572L269.792,170.358L267.84,166.14L266.546,165.532L266.373,165.178L261.814,157.575L260.941,153.324L261.241,150.532L262.12,148.19L263.447,143.935L262.28,139.238L257.155,135.563L252.316,133.944L247.184,132.771L243.964,130.568L242.738,127.559L242.945,120.006L243.604,116.202L244.438,114.771L244.411,112.498L245.257,109.706L247.104,106.224L247.63,103.873L248.21,102.553L249.797,100.828L250.936,100.133L252.176,100.722L255.615,101.872L257.182,102.203L259.008,102.838L260.947,102.916L262.194,102.59L265.187,102.052L268.192,100.672L269.586,99.793L270.939,99.319L272.879,99.039L277.158,97.148L279.204,96.463L281.143,96.141L282.783,96.071L283.729,97.107L284.016,98.068L285.396,98.703L286.382,98.776L287.369,99.522L287.802,100.184L288.862,100.005L290.648,99.246L292.741,97.493L293.434,96.693L294.354,94.195L294.874,93.468L295.567,93.182L298.047,92.608L299.513,91.701L300.1,90.381L299.846,89.241L299.346,88.136L299.853,87.884L300.619,88.031L302.192,87.525L303.699,86.439L304.905,84.903L305.052,83.909L304.698,82.663L304.625,81.411L305.912,80.284L306.205,79.695L306.318,77.75L307.205,76.508L307.971,75.74L308.784,74.424L309.158,73.173L309.851,71.82L311.317,70.767L312.444,71.066L316.17,71.498L318.649,70.923L319.389,70.265L320.489,68.913L322.402,65.914L323.248,64.409L323.981,63.609L325.594,62.556L325.608,61.525L325.361,58.328L325.474,57.666L326.207,56.346L329.654,54.455L330.827,54.207L332.04,53.59L334.559,53.567L336.132,53.866L337.625,54.391L342.264,54.253L343.584,54.791L349.19,54.377L350.729,53.392L353.635,51.166L353.535,49.878L353.828,48.48L353.695,46.828L353.775,45.614L354.582,45.356L356.334,45.733L358.541,44.68L359.314,44.68L363.007,45.581L365.826,45.922L367.152,45.333L368.652,45.19L370.918,45.83L372.311,45.683L373.931,45.067L374.777,44.225L374.678,43.268L373.405,41.17L372.971,40.172L372.791,38.994L372.878,37.559L373.405,34.477L373.044,33.152L373.124,32.269L373.611,31.243L376.084,27.867L376.757,26.473L377.017,25.116L376.844,23.939L376.37,22.977L375.091,21.426L374.658,20.143L375.004,18.156L375.557,17.167L376.297,16.468L378.25,15.594L378.837,14.821L378.997,12.576L379.59,11.256L380.73,11.04L382.049,11.118L384.656,11.528L386.048,11.169L387.528,10.069L388.302,10L390.821,10.676L392.027,11.412L392.654,12.484L393.154,13.777L393.474,15.203L394.127,16.343L394.793,16.758L396.107,16.578L397.533,16.919L398.446,17.581L399.399,18.685L402.579,20.212L403.492,20.912L403.405,22.236L402.325,24.366L401.619,26.459L401.685,27.412L405.598,29.196L407.284,29.421L408.784,29.325L409.671,28.778L410.297,27.821L410.917,27.935L411.39,28.566L413.763,29.863L415.149,30.056L416.109,29.988L420.028,28.874L422.561,28.884L424.607,29.16L426.28,29.868L427.047,30.539L426.12,32.255L425.96,34.063L425.034,36.262L423.587,39.187L423.581,40.034L424.094,40.407L424.307,41.147L423.967,41.874L423.128,42.49L422.755,43.189L423.228,43.714L424.794,44.266L426.034,45.669L426.014,46.506L426.687,46.971L428.747,46.92L431.393,47.785L434.565,46.363L435.098,46.363L435.785,47.035L436.878,47.371L439.491,49.161L441.557,50.798L443.523,51.953L443.77,53.609L444.424,54.128L445.15,54.17L446.07,53.517L446.983,53.273L447.636,53.572L448.862,55.453L450.642,56.539L452.869,56.378L453.855,56.824L457.007,58.848L457.921,58.747L458.44,57.974L459.434,55.637L459.773,54.538L461.58,52.173L463.079,51.12L465.339,50.996L467.738,51.944L469.951,53.434L471.478,53.852L472.678,53.797L473.771,53.443L476.41,51.557L477.91,51.208L478.523,51.732L479.103,52.914L481.769,55.665L482.169,56.658L482.162,57.51L481.049,59.552L481.083,60.288L482.022,61.175L483.249,62.666L487.834,67.128L496.78,70.458L500.492,71.231L502.132,71.245L502.971,70.923L504.444,69.764L505.257,68.49L506.504,67.399L507.491,66.857L510.963,65.937L514.363,65.863L515.929,66.134L517.222,66.751L518.555,66.705L521.174,67.837L525.573,70.077L527.767,70.316L529.852,70.15L531.965,71.268L533.299,72.142L533.565,72.529L534.592,72.979L535.858,74.419L536.831,76.227L538.258,76.457L538.484,78.766L539.004,79.355L539.118,80.661L540.697,80.739L541.017,81.329L541.03,82.377L541.43,81.959L542.837,82.248L542.057,83.523L542.97,83.619L542.936,84.125L543.503,83.969L543.396,85.023L544.243,85.216L546.583,85.298L547.822,85.607L548.442,86.016L549.548,88.703L550.235,90.032L551.148,90.294L552.968,91.591L554.121,92.884L556.167,94.627L557.074,94.889L559.307,95.23L560.586,95.023L562.133,94.411L563.646,93.211L565.265,91.38L566.379,90.4L567.371,89.82L570.338,89.802L573.15,90.777L575.437,92.042L577.323,94.365L578.236,94.448L579.856,93.546L580.416,92.737L580.836,91.196L580.955,89.185L580.609,88.003L579.809,87.262L578.603,86.927L578.136,86.333L578.249,85.418L579.422,85.275L580.782,84.774L582.175,84.493L585.141,84.438L585.875,84.116L586.288,83.09L586.228,81.292L585.701,79.341L585.128,78.196L585.201,77.722L586.828,77L587.448,76.411L588.301,75.1L589.954,74.856L591.673,75.017L592.513,74.916L592.887,74.069L593.113,72.828L593.526,72.243L595.473,71.742L596.939,71.024L596.952,70.141L596.225,69.691L595.826,68.844L596.346,68.117L597.632,67.174L598.918,66.811L600.711,66.797L602.171,67.068L603.004,67.956L604.824,68.858L605.731,68.862L607.597,69.249L608.177,69.769L608.83,69.852L612.929,69.598L615.368,69.7L617.754,69.212L619.028,69.263L619.554,67.615L620.767,67.404L621.534,67.013L624.067,64.874L626.839,61.714L627.473,60.615L626.499,59.685L626.439,58.213L628.492,57.873L629.819,56.566L630.732,55.913L633.085,54.768L635.918,55.798L636.817,56.253L637.79,57.33L640.877,59.133L643.196,59.929L643.963,60.527L644.642,61.718L645.649,62.385L646.782,62.625L647.575,63.37L648.229,63.6L649.182,63.282L651.588,63.347L652.641,63.549L653.581,64.11L656.2,64.253L656.827,64.042L657.14,62.137L657.693,61.19L659.919,61.217L661.812,61.682L663.199,61.811L664.219,61.714L664.918,61.318L665.185,60.55L665.845,60.191L667.518,60.067L671.324,59.418L673.723,59.561L675.216,60.094L676.376,60.808L679.762,61.769L680.849,62.478L681.188,63.375L681.162,66.65L682.735,67.28L683.641,68.448L683.088,71.553L682.408,73.867L681.868,75.035L681.975,76.466L685.087,77.396L685.407,77.8L685.547,80.51L685.927,81.747L686.567,82.111L688.147,82.111L689.36,81.917L690.16,81.306L691.146,78.95L691.733,78.012L692.699,77.529L694.186,77.405L696.932,77.396L698.245,77.533L699.891,77.235L700.837,76.673L702.211,75.5L702.657,75.569L703.29,77.069L703.504,78.872L703.844,79.498L706.463,79.755L709.976,80.487L711.582,81.135L714.608,81.789L718.181,83.137L719.027,83.785L719.327,84.654L718.881,85.979L718.074,87.327L717.834,88.381L718.361,89.429L719.327,89.323L720.313,88.887L721.94,88.905L722.867,89.719L723.646,91.297L724.246,93.399L725.026,94.264L727.485,94.485L731.051,94.342L731.872,94.508L732.971,95.156L733.278,95.727L733.104,96.606L732.224,97.852L731.678,99.853L731.618,102.829L732.064,103.533L733.071,103.519L734.671,102.884L735.744,101.969L737.177,102.047L738.65,103.574L738.897,105.355L738.577,108.014L738.717,109.039L739.277,109.563L741.776,112.572L742.569,115.521L744.029,115.948L746.049,115.82L747.068,115.999L749.681,116.169L751.881,116.62L756.54,117.793L758.772,118.474L759.979,118.561L761.039,118.147L761.652,117.595L761.992,116.542L762.032,113.8L763.278,112.471L765.471,112.944L768.237,114.058L769.67,113.851L770.203,113.414L771.923,110.622L773.369,110.52L774.396,112.122L774.736,113.796L775.289,114.476L775.096,115.976L776.329,116.086L776.282,116.864L777.542,117.31L777.622,116.229L778.102,116.193L778.275,114.799L779.128,114.951L779.275,113.764L780.148,113.671L780.455,110.985L781.248,111.206L783.627,111.495L783.961,111.142L783.661,114.099L783.828,114.536L785.394,114.9L787.68,114.785L788.3,115.01L789.306,115.857L790.006,117.411L791.099,119.127L792.192,121.832L794.345,124.256L794.418,124.689L793.799,125.604L791.572,126.657L791.133,127.113L791.306,128.092L791.872,128.755L794.512,130.6L795.099,131.533L795.232,132.927L794.399,135.259L794.418,136.014L795.079,138.277L795.758,139.165L796.685,139.671L799.984,139.749L802.15,140.048L803.263,140.577L803.977,142.132L805.356,142.84ZM638.177,343.241L639.084,343.651L639.11,344.401L641.016,344.093L640.977,343.112L640.63,343.089L641.757,340.509L643.983,340.776L645.156,349.999L638.963,348.237L637.304,347.653L637.45,346.678L637.777,346.613L638.01,344.796L637.297,344.737L637.437,343.618Z" stroke="#333" stroke-width="2" stroke-dasharray="none" fill="none"></path></g></svg>