<?xml version="1.0" standalone="no"?><!DOCTYPE svg PUBLIC "-//W3C//DTD SVG 1.1//EN" "http://www.w3.org/Graphics/SVG/1.1/DTD/svg11.dtd"><svg t="1741836046407" class="icon" viewBox="0 0 1024 1024" version="1.1" xmlns="http://www.w3.org/2000/svg" p-id="5863" width="48" height="48" xmlns:xlink="http://www.w3.org/1999/xlink"><path d="M514.0992 97.52576c-80.7936 0-146.28864 65.48992-146.28864 146.28352v292.57216c0 80.7936 65.49504 146.28352 146.28864 146.28352s146.28352-65.49504 146.28352-146.28352V243.80928c0-80.7936-65.49504-146.28352-146.28352-146.28352z m0-97.52576a243.80928 243.80928 0 0 1 243.80928 243.80928v292.57216c0 134.656-109.1584 243.80928-243.8144 243.80928-134.65088 0-243.80928-109.1584-243.80928-243.8144V243.8144C270.2848 109.15328 379.4432 0 514.0992 0zM35.84 632.05376l95.67232-19.16416c36.6336 182.2208 196.7104 313.32352 382.58688 313.32352 185.87136 0 345.94816-131.0976 382.58176-313.32352l95.67232 19.16416C947.88096 855.5264 750.592 1024 514.09408 1024 277.6064 1024 80.31744 855.5264 35.84 632.05376z" fill="#000000" p-id="5864"></path></svg>